<?xml version="1.0" encoding="UTF-8"?>
<svg id="Layer_1" data-name="Layer 1" xmlns="http://www.w3.org/2000/svg" viewBox="0 0 792.03 428.49">
  <defs>
    <style>
      .cls-1 {
        fill: none;
      }

      .cls-2 {
        fill: #dfca8e;
      }

      .cls-3 {
        fill: #92a7ac;
      }

      .cls-4 {
        fill: #185b89;
      }
    </style>
  </defs>
  <path class="cls-3" d="M695.08,154.74c2.43-2.46,5.35-4.49,8.43-6.05.96-.49,1.96-.91,2.95-1.35.45-.54,1.06-1.01,1.97-1.35-6.28-3.95-9.04-11.61-13.48-17.38-24.6-32.05-73.01-86.3-108.1-106.61-3.62-2.1-8.31-.58-8.78-5.92-.29-3.28,2.14-10.66,1.12-12.83-.25-.53-3.69-2.82-4.39-3.01-8.9-2.34-11.04,12.39-14.64,14.06-5.12,1.16-12.43.73-16.48,3.28-55.76,13.77-118.68,39.92-170.33,68.55-2.56,1.42-13.4,7.88-14.96,9.29-.3.27-.6.64-.89,1.05.4.3.79.59,1.16.94,2.8,2.65,5.19,5.65,7.91,8.36.42.41.86.8,1.29,1.19.22.13.53.3.94.5.01,0,.01,0,.02.01.16-.51.35-1.01.57-1.49,36.94,18.92,33.91,56.06,82.48,37.22,22.86-17.9,12.74,3.47,35.54,2.26,15.57-3.47,23.4,7.75,32.63,16.88-3.68,11.45-5.91,23.17-9.4,34.67-7.27,23.95-15.1,48.32-22.48,72.01-3.81,12.24-9.49,24.55-11.67,37.09,4.95,5.53,13.22-.5,17.58-5.08,9.89-43.81,22.32-87.21,36.1-130.84,4.06,2.11,8.71,3.21,14.39,2.49,29.94-6.88,42.12-19.85,76.44-11.73,10.69,10.3,23.19,20.43,39.36,16.48,12.06-2.35,25.49-13.34,32.82-22.79.64.04,1.27.07,1.88.1ZM524.13,31.27c4.17,2.36,10.44-2.15,15.68-1.39l-.49-2.33,3.41-.5c6.17,2.48,13.37,5.72,20,7.13,4.72,1,21.41,1.59,23.23,2.36.28.12,3.22,4.13,3.43,4.61.2.47,2.82.76-.39,1.83-2.57.85-14.37.76-17.26.52-16.68-1.36-33.07-7.08-50.1-8.02l2.49-4.22ZM482.7,47.48c4.47,1.92,7.21-2.56,10.75-3.44,5.82-1.45,7.02,2.93,8.41-5.48l.87,2.05,47.04,14.58c20.36,2.63,39.88,7.8,61.09,7.5,1.88-.03,3.77-1.7,5.23-1.52,1.64.6,10.24,9.05,8.15,10.34-13.09-.34-26.34.84-39.36-.08-17.85-1.26-42.16-5.35-59.28-9.41-5.41-1.28-40.57-11.03-42.27-12.71-.37-.36-1.08-1.61-.63-1.82ZM434.73,69.61l3.28-4.1c9.08,2.61,17.93,5.92,27.1,8.33,49.61,12.99,103.44,23.03,157.3,21.57,5.27-.14,19.7-3.07,23.27-2.38,3.17.61,6.49,7.33,8.62,8.51,1.03.57,3.34-.36,3.53-.01.15.27-.93,2.03-.55,3,.56,1.42,3.5,2.05,3.15,4.27-43.94,2.01-87.41.6-129.83-5.74-34.03-5.09-63.69-13.78-94.81-25.33-2.12-1.4-7.58-5.35-6.8-8.16l5.74.04ZM674.89,147.58c-24.74,33.58-49.05-5.83-79.9-2.29-18.61-12.35-39.26,11.79-58.22,11.41-34.22-30.56-76.48-33.49-119.03-26.27-7.93-6.23-22.85-25.69-36.56-34.44,2.06-.64,3.98-1.3,5.37-2.27,1.5-1.04.6-2.67.74-2.71,1.96-.61,4.48.96,6.84-1.49l48.69,19.37c68.58,16.84,137.26,27.97,211.39,21.84,4.63-.38,22.99-3.89,25.15-2.5,1.08.69,2.2,2.7,3.23,3.75.49.5,1.62,1.78,2.77,3.29,2.67,1.09,4.64,2.99,5.96,5.27-3.78.86-9.13,3.05-16.43,7.04Z"/>
  <g>
    <path class="cls-1" d="M434.41,373.55c-13.24,0-23.35,8.54-23.35,19.92s10.11,19.92,23.35,19.92,23.35-8.54,23.35-19.92-10.11-19.92-23.35-19.92Z"/>
    <path class="cls-1" d="M278.75,175.45c-2.45,6.05-.13,8.89,4.64,7.34,6.57-2.06,11.08-11.85,18.42-25.63-7.6,1.29-18.42,6.7-23.06,18.29Z"/>
    <polygon class="cls-1" points="570.73 270.43 559.76 229.17 548.93 270.43 570.73 270.43"/>
    <path class="cls-1" d="M150.91,212.49h-16.2v42.25h14.19c9.17,0,13.82-7.11,13.82-21.12,0-9.75-3.09-21.13-11.82-21.13Z"/>
    <path class="cls-1" d="M43.86,150.46c5.15-2.45,9.4-6.31,13.01-11.08-22.8-.26-23.31,15.84-13.01,11.08Z"/>
    <path class="cls-1" d="M746.38,212.49h-17.29v89.51h17.29c17.19,0,23.32-22.98,23.32-44.48s-6.11-45.03-23.32-45.03Z"/>
    <path class="cls-2" d="M16.6,266.09c0-1.53,1.24-2.78,2.78-2.78h29.33v-9.95h-29.33c-1.54,0-2.78-1.24-2.78-2.78v-40.87c0-1.53,1.24-2.78,2.78-2.78h37.54v-9.77H5.55v120.16h11.05v-51.23Z"/>
    <rect class="cls-2" x="77.98" y="197.16" width="11.05" height="120.16"/>
    <path class="cls-2" d="M156.45,271.25c.39-.79,1.13-1.35,2-1.51,13.07-2.35,20.89-20.21,20.89-36.13,0-16.82-7.11-36.45-27.15-36.45h-34.08v120.16h11.05v-44.66c0-1.53,1.24-2.78,2.78-2.78h8.94c1.06,0,2.03.61,2.5,1.57l22.23,45.87h13.4l-22.54-43.57c-.4-.78-.41-1.71-.02-2.5ZM131.94,260.29c-1.54,0-2.78-1.24-2.78-2.78v-47.8c0-1.53,1.24-2.78,2.78-2.78h18.98c10.55,0,17.37,10.47,17.37,26.68,0,23.21-12.14,26.68-19.38,26.68h-16.97Z"/>
    <path class="cls-2" d="M214.54,304.77v-38.68c0-1.53,1.24-2.78,2.78-2.78h33.17v-9.95h-33.17c-1.54,0-2.78-1.24-2.78-2.78v-40.87c0-1.53,1.24-2.78,2.78-2.78h38.46v-9.77h-52.28v120.16h53.56v-9.77h-39.74c-1.54,0-2.78-1.24-2.78-2.78Z"/>
    <rect class="cls-2" x="327.55" y="197.16" width="11.05" height="120.16"/>
    <path class="cls-2" d="M400.2,253.54l-14.05-5.48c-8.06-2.97-12.53-10.37-12.53-20.83,0-12.82,7.63-22.48,17.74-22.48s16.43,8.39,17.28,21.16h11.07c-1-18.62-12.06-30.94-28.17-30.94-17.16,0-29.15,13.26-29.15,32.25,0,14.99,7.32,25.64,21.18,30.79l12.97,4.94c9.91,4.05,15.11,12.07,15.11,23.21,0,13.88-7.9,23.58-19.2,23.58-10.71,0-18.51-9.1-19.61-22.44h-11.09c1.2,19.39,13.27,32.21,30.7,32.21s30.25-13.79,30.25-33.53c0-15.5-7.78-26.72-22.5-32.44Z"/>
    <path class="cls-2" d="M456.26,304.77v-107.61h-11.05v120.16h47.72v-9.77h-33.9c-1.54,0-2.78-1.24-2.78-2.78Z"/>
    <path class="cls-2" d="M600.41,317.32l-33.83-120.16h-13.49l-33.83,120.16h11.7l7.85-30.22c.32-1.22,1.42-2.08,2.69-2.08h36.67c1.26,0,2.36.85,2.69,2.06l8.03,30.23h11.53ZM576.54,274.9c-.53.68-1.34,1.08-2.2,1.08h-29.01c-.86,0-1.67-.4-2.2-1.08s-.71-1.57-.49-2.4l14.41-54.92c.32-1.22,1.42-2.07,2.68-2.07h0c1.26,0,2.36.85,2.69,2.06l14.6,54.92c.22.83.04,1.72-.48,2.41Z"/>
    <path class="cls-2" d="M683.4,317.32v-120.16h-11.05v82.98c0,1.33-.94,2.47-2.25,2.73-1.27.26-2.6-.45-3.11-1.68l-34.15-84.02h-13.42v120.16h11.05v-86.44c0-1.32.93-2.46,2.23-2.72,1.3-.26,2.6.44,3.11,1.65l36.51,87.51h11.07Z"/>
    <path class="cls-2" d="M746.38,197.16h-33.9v120.16h33.9c23.99,0,40.1-24.03,40.1-59.81s-16.12-60.35-40.1-60.35ZM746.38,307.55h-20.07c-1.54,0-2.78-1.24-2.78-2.78v-95.06c0-1.53,1.24-2.78,2.78-2.78h20.07c17.81,0,28.87,19.38,28.87,50.58s-11.06,50.03-28.87,50.03Z"/>
    <g>
      <polygon class="cls-4" points="367.11 385.42 333.65 385.42 333.65 359.61 321.59 359.61 321.59 427.31 333.65 427.31 333.65 401.11 367.11 401.11 367.11 427.31 379.18 427.31 379.18 359.61 367.11 359.61 367.11 385.42"/>
      <path class="cls-4" d="M434.41,358.44c-20.41,0-35.81,15.11-35.81,35.02s15.4,35.03,35.81,35.03,35.81-15.11,35.81-35.03-15.4-35.02-35.81-35.02ZM434.41,413.38c-13.24,0-23.35-8.54-23.35-19.92s10.11-19.92,23.35-19.92,23.35,8.54,23.35,19.92-10.11,19.92-23.35,19.92Z"/>
      <polygon class="cls-4" points="526.34 392.78 524.19 392.78 507.11 359.61 489.65 359.61 489.65 427.31 501.72 427.31 501.72 382.18 503.88 382.18 519.57 414.07 531.54 414.07 547.34 382.18 549.5 382.18 549.5 427.31 561.56 427.31 561.56 359.61 543.51 359.61 526.34 392.78"/>
      <polygon class="cls-4" points="596.39 400.43 629.95 400.43 629.95 386.1 596.39 386.1 596.39 374.43 633.19 374.43 633.19 359.61 584.33 359.61 584.33 427.31 633.68 427.31 633.68 412.5 596.39 412.5 596.39 400.43"/>
      <path class="cls-4" d="M681.26,386.3c-5.59-.78-17.66-2.85-17.66-7.75,0-3.63,5.79-6.08,13.54-6.08,8.63,0,14.81,3.04,14.81,6.97h12.46c0-11.87-11.38-20.99-26.88-20.99s-26.49,8.34-26.49,20.9,10.79,18.54,23.16,20.41c8.73,1.37,18.93,3.14,18.93,8.14,0,3.92-6.48,6.57-14.62,6.57-9.32,0-16.19-3.43-16.19-7.85h-12.46c0,12.46,11.97,21.88,28.16,21.88s27.67-8.63,27.67-21.88c0-12.56-11.28-18.35-24.43-20.31Z"/>
      <path class="cls-4" d="M120.11,163.73l2.32-8.24c.52-1.67-.77-2.96-2.45-2.83-8.89.64-16.74-.77-25.5-5.41-7.73-4.12-15.46-9.14-23.57-12.36,7.6-12.75,13.91-27.05,19.19-36.45,14.55-25.89,25.37-40.96,38.38-38,5.41,1.29,7.99,5.15,5.54,13.65-.65,1.93.52,3.61,2.45,3.35l2.45-.39c1.55-.26,2.19-.9,3.09-2.96,5.41-12.24-1.42-23.57-13.14-24.86-16.36-1.68-30.01,6.44-47.14,38.64-7.6,14.17-12.62,31.17-20.09,44.31-13.14-2.32-30.66,1.54-34,15.46-2.06,8.76,2.45,15.07,10.3,15.07,11.46,0,20.99-9.53,29.24-21.77,14.17,5.28,28.34,24.73,51.26,24.08.77,0,1.42-.52,1.68-1.29ZM43.86,150.46c-10.3,4.77-9.79-11.33,13.01-11.08-3.61,4.77-7.86,8.63-13.01,11.08Z"/>
      <path class="cls-4" d="M198.66,97.53l-4.89-2.45c-.9-.52-1.8-.39-2.58.39-5.02,4.89-10.43,10.17-15.58,15.58-.9-4.64-1.8-9.53-2.32-14.56-.13-1.16-.64-1.93-1.8-1.93l-3.99.13c-1.29,0-2.06.52-1.93,1.93.64,7.6,1.8,14.94,3.48,21.38-2.43,2.64-4.75,5.2-6.92,7.64-.28.08-.56.23-.8.47-4.12,3.48-11.46,8.37-15.97,7.6-8.12-1.29-3.22-10.95,10.43-35.29.77-1.42.13-2.83-1.29-3.22l-5.54-1.42c-.77-.26-1.67.13-2.06.9-11.46,21.25-13.65,26.4-21.64,33.49-5.93,5.28-13.14,4.25-9.4-4.77,2.96-7.34,7.6-14.55,13.53-23.06.64-1.03.39-2.45-.65-2.58l-6.31-.9c-1.16-.13-2.06.26-2.83,1.42-3.99,5.41-9.79,16.36-12.49,23.57-6.83,17.77,6.44,23.7,17,14.3,3.35-2.96,6.83-7.21,10.05-11.59-2.96,10.05.39,16.36,8.5,17.39,1.87.28,4.04.19,6.35-.38-.05.08-.13.17-.18.25-.77,1.03-.39,1.93.77,2.45l3.35,1.42c1.16.52,2.19,0,2.83-1.03,3.61-5.41,8.89-11.98,15.46-18.94,3.61,10.56,8.5,17.52,14.42,17.52,5.02,0,8.37-3.22,10.69-7.73.64-1.16.52-1.93-.52-2.7l-1.68-1.16c-1.03-.77-1.8-.52-2.7.39-1.03,1.03-2.45,1.67-4.25,1.67-3.35,0-6.7-5.92-9.4-14.68,5.92-5.92,12.62-11.98,19.71-17.64,2.06-1.67,2.45-3.22,1.16-3.87Z"/>
      <path class="cls-4" d="M284.68,108.22c3.48-2.45,5.92-3.09,8.11-3.09,1.03,0,1.93-.26,2.45-1.16l3.6-5.67c.77-1.16.39-2.19-.9-2.45-3.35-.77-7.08.39-11.33,3.09-4.12,2.57-7.6,5.67-11.08,9.79l3.99-9.92c.52-1.29-.13-2.45-1.54-2.19l-3.22.52c-1.03.13-1.8.64-2.19,1.55l-13.47,27.91c-4.2,3.43-11.07,7.86-15.38,7.12-8.12-1.29-3.22-10.95,10.43-35.29.77-1.42.13-2.83-1.29-3.22l-5.54-1.42c-.77-.26-1.67.13-2.06.9-11.46,21.25-13.65,26.4-21.64,33.49-5.92,5.28-13.14,4.25-9.4-4.77,2.96-7.34,7.6-14.55,13.53-23.06.64-1.03.39-2.45-.65-2.58l-6.31-.9c-1.16-.13-2.06.26-2.83,1.42-3.99,5.41-9.79,16.36-12.49,23.57-6.83,17.77,6.44,23.7,17,14.3,3.35-2.96,6.83-7.21,10.05-11.59-2.96,10.05.39,16.36,8.5,17.39,3.34.5,7.63-.19,12.01-2.64-.39,1.22.2,1.99,1.5,1.99l6.05.26c1.03,0,1.93-.39,2.32-1.42,6.96-17.13,10.56-24.09,21.77-31.94Z"/>
      <path class="cls-4" d="M322.54,156.39l.39-3.22c.13-1.03-.13-1.8-1.16-2.19-1.67-.52-3.73-.77-6.31-.77,8.89-17,21.77-40.57,27.18-50.74.65-1.29.13-2.19-1.29-2.45l-5.02-.77c-1.03-.13-1.93.13-2.45,1.16-14.55,23.83-24.99,35.68-31.55,35.42-8.24-.39,7.47-25.11,13.78-34.26.9-1.42.39-2.32-1.29-2.19l-6.83.64c-1.03.13-1.67.52-2.19,1.42-11.59,18.68-21.25,35.8-13.4,40.96,7.34,4.89,15.97-.52,25.63-12.37l-.39.77c-2.32,4.38-6.83,12.88-12.36,23.06-.26.13-.52.13-.77.13-14.81,1.93-27.95,10.05-33.23,23.44-4.12,10.3,0,17.64,9.66,17.77,11.33.13,19.84-13.91,31.04-35.42,2.96.13,5.67.65,8.12,1.16,1.29.39,2.32-.13,2.45-1.55ZM283.39,182.79c-4.77,1.55-7.08-1.29-4.64-7.34,4.64-11.59,15.46-17,23.06-18.29-7.34,13.78-11.85,23.57-18.42,25.63Z"/>
      <path class="cls-4" d="M59.7,191.61H2.78c-1.54,0-2.78,1.24-2.78,2.78v125.71c0,1.53,1.24,2.78,2.78,2.78h16.6c1.54,0,2.78-1.24,2.78-2.78v-51.23h29.33c1.54,0,2.78-1.24,2.78-2.78v-15.51c0-1.53-1.24-2.78-2.78-2.78h-29.33v-35.32h37.54c1.54,0,2.78-1.24,2.78-2.78v-15.33c0-1.53-1.24-2.78-2.78-2.78ZM56.92,206.94H19.38c-1.54,0-2.78,1.24-2.78,2.78v40.87c0,1.53,1.24,2.78,2.78,2.78h29.33v9.95h-29.33c-1.54,0-2.78,1.24-2.78,2.78v51.23H5.55v-120.16h51.37v9.77Z"/>
      <path class="cls-4" d="M91.81,191.61h-16.6c-1.54,0-2.78,1.24-2.78,2.78v125.71c0,1.53,1.24,2.78,2.78,2.78h16.6c1.54,0,2.78-1.24,2.78-2.78v-125.71c0-1.53-1.24-2.78-2.78-2.78ZM89.03,317.32h-11.05v-120.16h11.05v120.16Z"/>
      <path class="cls-4" d="M162.99,274.26c14.25-5.08,21.9-24.03,21.9-40.65,0-20.91-10.11-42.01-32.7-42.01h-36.85c-1.54,0-2.78,1.24-2.78,2.78v125.71c0,1.53,1.24,2.78,2.78,2.78h16.6c1.54,0,2.78-1.24,2.78-2.78v-44.66h4.42l22.23,45.87c.46.96,1.43,1.57,2.5,1.57h19.71c.97,0,1.87-.51,2.37-1.33.5-.83.54-1.86.09-2.72l-23.05-44.56ZM165.61,317.32l-22.23-45.87c-.46-.96-1.43-1.57-2.5-1.57h-8.94c-1.54,0-2.78,1.24-2.78,2.78v44.66h-11.05v-120.16h34.08c20.04,0,27.15,19.64,27.15,36.45,0,15.92-7.81,33.78-20.89,36.13-.87.16-1.61.71-2,1.51-.39.79-.38,1.72.02,2.5l22.54,43.57h-13.4Z"/>
      <path class="cls-4" d="M168.29,233.62c0-16.21-6.82-26.68-17.37-26.68h-18.98c-1.54,0-2.78,1.24-2.78,2.78v47.8c0,1.53,1.24,2.78,2.78,2.78h16.97c7.24,0,19.38-3.47,19.38-26.68ZM148.91,254.74h-14.19v-42.25h16.2c8.72,0,11.82,11.38,11.82,21.13,0,14.02-4.65,21.12-13.82,21.12Z"/>
      <path class="cls-4" d="M259.83,302h-39.74v-33.13h33.17c1.54,0,2.78-1.24,2.78-2.78v-15.51c0-1.53-1.24-2.78-2.78-2.78h-33.17v-35.32h38.46c1.54,0,2.78-1.24,2.78-2.78v-15.33c0-1.53-1.24-2.78-2.78-2.78h-57.84c-1.54,0-2.78,1.24-2.78,2.78v125.71c0,1.53,1.24,2.78,2.78,2.78h59.12c1.54,0,2.78-1.24,2.78-2.78v-15.33c0-1.53-1.24-2.78-2.78-2.78ZM257.05,317.32h-53.56v-120.16h52.28v9.77h-38.46c-1.54,0-2.78,1.24-2.78,2.78v40.87c0,1.53,1.24,2.78,2.78,2.78h33.17v9.95h-33.17c-1.54,0-2.78,1.24-2.78,2.78v38.68c0,1.53,1.24,2.78,2.78,2.78h39.74v9.77Z"/>
      <path class="cls-4" d="M324.77,191.61c-1.54,0-2.78,1.24-2.78,2.78v125.71c0,1.53,1.24,2.78,2.78,2.78h16.6c1.54,0,2.78-1.24,2.78-2.78v-125.71c0-1.53-1.24-2.78-2.78-2.78h-16.6ZM338.59,317.32h-11.05v-120.16h11.05v120.16Z"/>
      <path class="cls-4" d="M428.25,285.98c0-17.73-9.25-31.09-26.04-37.62l-14.1-5.49c-7.4-2.72-8.95-10.01-8.95-15.64,0-8.21,4.27-16.93,12.18-16.93,7.07,0,11.82,7.39,11.82,18.39,0,1.53,1.24,2.78,2.78,2.78h16.61c1.54,0,2.78-1.24,2.78-2.78,0-23.49-13.58-39.27-33.8-39.27s-34.71,15.9-34.71,37.81c0,17.27,8.81,30.05,24.78,35.98l12.89,4.9c7.8,3.19,11.6,9.09,11.6,18.05s-4.22,18.02-13.65,18.02c-8.33,0-14.03-7.92-14.19-19.7-.02-1.52-1.26-2.74-2.78-2.74h-16.61c-.74,0-1.45.3-1.97.82-.52.52-.81,1.24-.81,1.98.19,24.24,14.8,40.52,36.35,40.52s35.8-16.44,35.8-39.09ZM372.84,287.3c1.1,13.35,8.9,22.44,19.61,22.44,11.31,0,19.2-9.7,19.2-23.58,0-11.15-5.2-19.16-15.11-23.21l-12.97-4.94c-13.86-5.15-21.18-15.8-21.18-30.79,0-18.99,11.99-32.25,29.15-32.25,16.1,0,27.17,12.31,28.17,30.94h-11.07c-.85-12.77-7.58-21.16-17.28-21.16s-17.74,9.67-17.74,22.48c0,10.46,4.47,17.86,12.53,20.83l14.05,5.48c14.72,5.72,22.5,16.94,22.5,32.44,0,19.74-12.44,33.53-30.25,33.53s-29.5-12.83-30.7-32.21h11.09Z"/>
      <path class="cls-4" d="M442.44,322.88h53.28c1.54,0,2.78-1.24,2.78-2.78v-15.33c0-1.53-1.24-2.78-2.78-2.78h-33.9v-107.61c0-1.53-1.24-2.78-2.78-2.78h-16.6c-1.54,0-2.78,1.24-2.78,2.78v125.71c0,1.53,1.24,2.78,2.78,2.78ZM445.21,197.16h11.05v107.61c0,1.53,1.24,2.78,2.78,2.78h33.9v9.77h-47.72v-120.16Z"/>
      <path class="cls-4" d="M586.75,322.88h17.33c.87,0,1.69-.41,2.21-1.1.53-.69.7-1.59.46-2.43l-35.39-125.71c-.34-1.2-1.43-2.02-2.67-2.02h-17.7c-1.24,0-2.34.83-2.67,2.02l-35.4,125.71c-.24.84-.07,1.74.46,2.43.52.69,1.34,1.1,2.21,1.1h17.52c1.26,0,2.37-.85,2.69-2.08l7.85-30.22h32.39l8.03,30.23c.32,1.22,1.43,2.06,2.69,2.06ZM538.81,287.11l-7.85,30.22h-11.7l33.83-120.16h13.49l33.83,120.16h-11.53l-8.03-30.23c-.32-1.22-1.43-2.06-2.69-2.06h-36.67c-1.26,0-2.37.85-2.69,2.08Z"/>
      <path class="cls-4" d="M545.33,275.99h29.01c.86,0,1.68-.4,2.2-1.08.53-.68.7-1.57.48-2.41l-14.6-54.92c-.33-1.22-1.43-2.06-2.69-2.06h0c-1.26,0-2.36.85-2.68,2.07l-14.41,54.92c-.22.83-.04,1.72.49,2.4s1.34,1.08,2.2,1.08ZM570.73,270.43h-21.8l10.83-41.27,10.97,41.27Z"/>
      <path class="cls-4" d="M670.49,322.88h15.69c1.54,0,2.78-1.24,2.78-2.78v-125.71c0-1.53-1.24-2.78-2.78-2.78h-16.61c-1.54,0-2.78,1.24-2.78,2.78v71.54l-29.5-72.59c-.43-1.05-1.44-1.73-2.57-1.73h-18.06c-1.54,0-2.78,1.24-2.78,2.78v125.71c0,1.53,1.24,2.78,2.78,2.78h16.6c1.54,0,2.78-1.24,2.78-2.78v-75.35l31.88,76.42c.43,1.03,1.44,1.71,2.56,1.71ZM630.49,230.88v86.44h-11.05v-120.16h13.42l34.15,84.02c.5,1.23,1.83,1.94,3.11,1.68,1.3-.25,2.25-1.4,2.25-2.73v-82.98h11.05v120.16h-11.07l-36.51-87.51c-.51-1.22-1.81-1.91-3.11-1.65-1.3.26-2.23,1.4-2.23,2.72Z"/>
      <path class="cls-4" d="M746.38,191.61h-36.67c-1.54,0-2.78,1.24-2.78,2.78v125.71c0,1.53,1.24,2.78,2.78,2.78h36.67c27.31,0,45.66-26.27,45.66-65.36s-18.35-65.91-45.66-65.91ZM712.48,317.32v-120.16h33.9c23.99,0,40.1,24.25,40.1,60.35s-16.12,59.81-40.1,59.81h-33.9Z"/>
      <path class="cls-4" d="M746.38,206.94h-20.07c-1.54,0-2.78,1.24-2.78,2.78v95.06c0,1.53,1.24,2.78,2.78,2.78h20.07c17.81,0,28.87-19.17,28.87-50.03s-11.06-50.58-28.87-50.58ZM729.09,302v-89.51h17.29c17.21,0,23.32,24.26,23.32,45.03s-6.12,44.48-23.32,44.48h-17.29Z"/>
    </g>
  </g>
</svg>