<?xml version="1.0" encoding="UTF-8"?>
<svg id="Layer_1" data-name="Layer 1" xmlns="http://www.w3.org/2000/svg" viewBox="0 0 581.02 581.01">
  <defs>
    <style>
      .cls-1 {
        fill: #185b89;
      }
    </style>
  </defs>
  <g>
    <path class="cls-1" d="M201.02,157.49c-6.26,9.29-13.49,16.53-22.2,16.53-5.97,0-9.39-4.79-7.82-11.44,2.54-10.56,15.84-13.5,25.82-11.74,5.67-9.98,9.49-22.89,15.26-33.64,13.01-24.45,23.37-30.61,35.79-29.34,8.9.98,14.08,9.58,9.98,18.87-.69,1.57-1.17,2.05-2.35,2.25l-1.86.29c-1.47.2-2.35-1.08-1.86-2.54,1.86-6.45-.1-9.39-4.21-10.37-9.88-2.25-18.09,9.19-29.14,28.85-4.01,7.14-8.8,17.99-14.57,27.68,6.16,2.44,12.03,6.26,17.9,9.39,6.65,3.52,12.62,4.6,19.36,4.11,1.27-.1,2.25.88,1.86,2.15l-1.76,6.26c-.2.59-.69.98-1.27.98-17.41.49-28.17-14.28-38.92-18.29ZM193.2,156.32c-17.31-.2-17.7,12.03-9.88,8.41,3.91-1.86,7.14-4.79,9.88-8.41Z"/>
    <path class="cls-1" d="M251.87,145.07c-2.44,3.33-5.09,6.55-7.63,8.8-8.02,7.14-18.09,2.64-12.91-10.86,2.05-5.48,6.45-13.79,9.49-17.9.59-.88,1.27-1.17,2.15-1.08l4.79.68c.78.1.98,1.17.49,1.96-4.5,6.45-8.02,11.93-10.27,17.51-2.84,6.85,2.64,7.63,7.14,3.62,6.06-5.38,7.73-9.29,16.43-25.43.29-.59.98-.88,1.56-.69l4.21,1.08c1.08.29,1.57,1.37.98,2.44-10.37,18.48-14.08,25.82-7.92,26.8,3.42.59,9-3.13,12.13-5.77.68-.69,1.66-.49,2.25.29l.59.78c.29.49.29,1.08,0,1.57-5.48,7.82-12.42,10.07-17.02,9.39-6.16-.78-8.7-5.57-6.45-13.2Z"/>
    <path class="cls-1" d="M263.01,158.17c2.54-3.72,8.41-10.56,15.35-18.09-1.27-4.89-2.15-10.46-2.64-16.23-.1-1.08.49-1.47,1.47-1.47l3.03-.1c.88,0,1.27.59,1.37,1.47.39,3.81,1.08,7.53,1.76,11.05,3.91-4.11,8.02-8.12,11.83-11.83.59-.59,1.27-.69,1.96-.29l3.72,1.86c.98.49.69,1.66-.88,2.93-5.38,4.3-10.46,8.9-14.96,13.4,2.05,6.65,4.6,11.15,7.14,11.15,1.37,0,2.44-.49,3.23-1.27.69-.68,1.27-.88,2.05-.29l1.27.88c.78.59.88,1.17.39,2.05-1.76,3.42-4.3,5.87-8.12,5.87-4.5,0-8.21-5.28-10.95-13.3-4.99,5.28-9,10.27-11.74,14.38-.49.78-1.27,1.17-2.15.78l-2.54-1.08c-.88-.39-1.17-1.08-.59-1.86Z"/>
    <path class="cls-1" d="M326.58,145.07c-2.44,3.33-5.09,6.55-7.63,8.8-8.02,7.14-18.09,2.64-12.91-10.86,2.05-5.48,6.45-13.79,9.49-17.9.59-.88,1.27-1.17,2.15-1.08l4.79.68c.78.1.98,1.17.49,1.96-4.5,6.45-8.02,11.93-10.27,17.51-2.84,6.85,2.64,7.63,7.14,3.62,6.06-5.38,7.73-9.29,16.43-25.43.29-.59.98-.88,1.56-.69l4.21,1.08c1.08.29,1.57,1.37.98,2.44-10.37,18.48-14.08,25.82-7.92,26.8,3.42.59,9-3.13,12.13-5.77.68-.69,1.66-.49,2.25.29l.59.78c.29.49.29,1.08,0,1.57-5.48,7.82-12.42,10.07-17.02,9.39-6.16-.78-8.7-5.57-6.45-13.2Z"/>
    <path class="cls-1" d="M342.22,156.02l14.77-30.61c.29-.69.88-1.08,1.66-1.17l2.44-.39c1.08-.2,1.56.68,1.17,1.66l-3.03,7.53c2.64-3.13,5.28-5.48,8.41-7.43,3.23-2.06,6.06-2.93,8.61-2.35.98.2,1.27.98.68,1.86l-2.74,4.3c-.39.68-1.08.88-1.86.88-1.66,0-3.52.49-6.16,2.35-8.51,5.96-11.25,11.25-16.53,24.25-.29.78-.98,1.08-1.76,1.08l-4.6-.2c-1.08,0-1.57-.68-1.08-1.76Z"/>
    <path class="cls-1" d="M356,182.92c4.01-10.17,13.98-16.33,25.23-17.8.2,0,.39,0,.59-.1,4.21-7.73,7.63-14.18,9.39-17.51l.29-.59c-7.33,9-13.89,13.11-19.46,9.39-5.96-3.91,1.37-16.92,10.17-31.1.39-.69.88-.98,1.66-1.08l5.18-.49c1.27-.1,1.66.59.98,1.66-4.79,6.94-16.72,25.72-10.46,26.01,4.99.2,12.91-8.8,23.96-26.89.39-.78,1.08-.98,1.86-.88l3.81.59c1.08.2,1.47.88.98,1.86-4.11,7.73-13.89,25.62-20.64,38.53,1.96,0,3.52.2,4.79.59.78.29.98.88.88,1.66l-.29,2.44c-.1,1.08-.88,1.47-1.86,1.17-1.86-.39-3.91-.78-6.16-.88-8.51,16.33-14.96,26.99-23.57,26.89-7.33-.1-10.46-5.67-7.33-13.49ZM365.2,189.27c4.99-1.57,8.41-9,13.98-19.46-5.77.98-13.98,5.09-17.51,13.89-1.86,4.6-.1,6.75,3.52,5.58Z"/>
  </g>
  <g>
    <path class="cls-1" d="M106.09,313.66h12v67.32h-12v-67.32Z"/>
    <path class="cls-1" d="M133.21,360.4h12.39c0,4.39,6.83,7.81,16.1,7.81,8.1,0,14.53-2.63,14.53-6.54,0-4.98-10.15-6.73-18.83-8.1-12.29-1.85-23.03-8.2-23.03-20.29s11.51-20.78,26.34-20.78,26.73,9.07,26.73,20.88h-12.39c0-3.9-6.15-6.93-14.73-6.93-7.71,0-13.46,2.44-13.46,6.05,0,4.88,12,6.93,17.56,7.71,13.08,1.95,24.29,7.71,24.29,20.2,0,13.17-12.19,21.76-27.51,21.76-16.1,0-28-9.37-28-21.76Z"/>
    <path class="cls-1" d="M247.93,366.25v14.73h-44.2v-67.32h12v52.59h32.2Z"/>
    <path class="cls-1" d="M309.88,369.08h-33.17l-4.68,11.9h-13.76l25.66-67.32h17.76l25.56,67.32h-12.68l-4.68-11.9ZM304.12,354.35l-9.56-24.39h-2.63l-9.56,24.39h21.75Z"/>
    <path class="cls-1" d="M340.3,313.66h13.56l31.03,42.63h1.66v-42.63h12.1v67.32h-13.66l-30.93-42.64h-1.76v42.64h-12v-67.32Z"/>
    <path class="cls-1" d="M478.15,347.32c0,19.22-14.73,33.66-34.34,33.66h-26.54v-67.32h26.54c19.61,0,34.34,14.44,34.34,33.66ZM465.76,347.32c0-10.83-9.56-18.93-22.34-18.93h-14.15v37.86h14.15c12.78,0,22.34-8.1,22.34-18.93Z"/>
  </g>
  <g>
    <path class="cls-1" d="M198.72,230.96v12.1h30.35v14.73h-30.35v25.76h-12v-67.32h46.15v14.73h-34.15Z"/>
    <path class="cls-1" d="M247.78,216.23h12.01v67.32h-12.01v-67.32Z"/>
    <path class="cls-1" d="M305.05,262.48h-14.53v21.07h-12.01v-67.32h30.84c13.56,0,23.9,9.95,23.9,23.12,0,9.95-5.85,18.05-14.64,21.46l15.51,22.73h-14.64l-14.44-21.07ZM290.51,247.75h18.53c7.23,0,11.71-3.32,11.71-8.39s-4.49-8.39-11.71-8.39h-18.53v16.78Z"/>
    <path class="cls-1" d="M397.43,268.82v14.73h-49.08v-67.32h48.59v14.73h-36.59v11.61h33.37v14.25h-33.37v12h37.07Z"/>
  </g>
  <path class="cls-1" d="M290.51,581.01C130.32,581.01,0,450.69,0,290.51S130.32,0,290.51,0s290.51,130.32,290.51,290.51-130.32,290.51-290.51,290.51ZM290.51,13.02C137.5,13.02,13.02,137.5,13.02,290.51s124.48,277.49,277.49,277.49,277.49-124.48,277.49-277.49S443.52,13.02,290.51,13.02Z"/>
  <path class="cls-1" d="M290.51,556.82c-146.85,0-266.31-119.47-266.31-266.32S143.66,24.19,290.51,24.19s266.32,119.47,266.32,266.32-119.47,266.32-266.32,266.32ZM290.51,30.7C147.25,30.7,30.7,147.25,30.7,290.51s116.55,259.81,259.81,259.81,259.81-116.55,259.81-259.81S433.77,30.7,290.51,30.7Z"/>
  <g>
    <path class="cls-1" d="M217.09,452.38l-16.41,29.4-6.43-3.59,5.99-10.73-12.61-7.04-6,10.74-6.43-3.59,16.41-29.39,6.43,3.59-5.9,10.56,12.61,7.04,5.9-10.56,6.43,3.59Z"/>
    <path class="cls-1" d="M225.83,474.25c2.41-9.62,11.72-15.04,21.62-12.55,9.9,2.48,15.55,11.65,13.15,21.26-2.41,9.62-11.72,15.04-21.62,12.56-9.9-2.48-15.55-11.65-13.15-21.27ZM253.21,481.11c1.18-4.69-2.26-9.27-7.94-10.7-5.68-1.42-10.87,1-12.05,5.69-1.17,4.69,2.26,9.27,7.94,10.7,5.68,1.42,10.87-1,12.05-5.69Z"/>
    <path class="cls-1" d="M278.37,468.13l10.44-.36,7.82,14.32,1.02-.03,6.81-14.83,10.78-.37,1.16,33.64-7.36.26-.7-20.09-1.03.04-6.06,13.93-7.02.24-7.01-13.47-1.02.04.7,20.09-7.36.25-1.17-33.64Z"/>
    <path class="cls-1" d="M361.42,480.14l2.53,8.41-23.92,7.19-9.7-32.24,23.69-7.12,2.53,8.41-16.63,5,1.07,3.55,15.14-4.55,2.44,8.13-15.14,4.55,1.12,3.74,16.87-5.07Z"/>
    <path class="cls-1" d="M377.22,471.43l6.61-3.78c.82,1.44,4.1,1.08,7.75-1,3.05-1.74,5-3.93,4.32-5.12-.87-1.52-5,.11-9.3,1.83-5.3,2.13-11.97,2.35-15.2-3.28-3.22-5.63-.21-12.36,6.48-16.19,6.99-4,14.42-2.8,17.45,2.5l-6.61,3.78c-.73-1.27-3.59-.87-6.94,1.04-2.92,1.67-4.63,3.6-4,4.7.85,1.48,6.09-.56,8.67-1.64,5.72-2.38,12.36-2.96,15.68,2.84,3.37,5.89.2,12.93-6.74,16.9-7.2,4.12-14.98,3-18.18-2.59Z"/>
  </g>
</svg>