<?xml version="1.0" encoding="UTF-8"?>
<svg id="Layer_1" data-name="Layer 1" xmlns="http://www.w3.org/2000/svg" xmlns:xlink="http://www.w3.org/1999/xlink" viewBox="0 0 900 1600">
  <defs>
    <style>
      .cls-1 {
        fill: none;
      }

      .cls-2 {
        fill: #dd945a;
      }

      .cls-3 {
        fill: #d37128;
      }

      .cls-4 {
        clip-path: url(#clippath);
      }
    </style>
    <clipPath id="clippath">
      <rect class="cls-1" x="0" width="900" height="1600"/>
    </clipPath>
  </defs>
  <g class="cls-4">
    <g>
      <path class="cls-2" d="M128.74-50.57c-1.32,5.76,1.37,12.74,1.31,17.75-.29,27.42-6.14,59.89-7.87,88.1-6.82,111.05-7.78,225.55,0,336.54,1.71,24.46,7.66,54.14,7.87,77.58.19,20.93-5.17,47.93-6.56,69.7-7.51,118.16-9.61,238.15-1.31,356.26,1.72,24.48,7.66,54.07,7.87,77.58.09,10.47-3.18,24.58-3.93,35.51-8.55,123.52-12.77,247.12-5.25,370.73,1.88,30.96,8.92,67.54,9.19,97.3.24,26.3-6.14,60.65-7.87,88.1-1.68,26.53-1.52,53.19-3.96,79.53h-28.92c-.59-31.9.7-63.58,1.26-95.37.53-30.08-2.93-60.47-2.65-89.39.11-11.32,3.29-25.09,4.01-36.78,7.68-124.69-3.91-250.66-1.36-376.05.62-30.51-3.08-61.48-2.64-90.73.17-11.09,3.28-24.11,3.99-35.45,7.83-125.02-3.92-251.6-1.35-377.37.62-30.27-2.86-60.26-2.65-89.39.08-11.46,3.29-25.09,4.01-36.78,7.01-114.93-4.11-228.38-2.67-343.19.42-33.26,3.26-66.33,1.42-99.92-.43-7.88-3.17-16.22-2.68-24.27h40.74Z"/>
      <path class="cls-2" d="M553.27-50.57c-1.16,6.42,1.47,12.99,1.36,19-.48,28.2-6.14,60.61-7.92,89.48-7.49,121.31-6.48,242.79,2.62,364.16,1.11,14.82,5.26,33.15,5.36,47.34.21,27.88-6.2,63.11-7.99,92.04-7.5,121.33-6.42,242.75,2.62,364.16,1.1,14.77,5.3,33.22,5.36,47.34.07,16.24-4.22,37.08-5.35,53.92-8.72,129.49-10.59,256.91-1.32,386.51,1.42,19.83,6.62,43.99,6.67,63.12.07,27.68-6.23,62.06-7.98,90.73-1.57,25.63-2.37,51.27-2.64,76.9h-30.23c-1.68-39.4,2.79-78.49,2.69-117.72-.05-21.32-4.11-45.08-4.13-65.68,0-10.73,3.34-24.37,4.05-35.51,7.33-115.24-3.47-230.65-1.31-345.77.65-34.53,1.73-68.21,0-102.52-.32-6.32-2.75-13.09-2.72-19.76.05-10.85,3.31-24.28,4.03-35.49,6.04-93.91-1.22-186.41-2.67-279.97-.88-56.61,4.18-112.12,1.35-168.32-.29-5.77-2.73-12.54-2.73-18.42,0-11.05,3.32-25.29,4.05-36.82,7.34-115.24-3.48-230.65-1.32-345.78.63-33.7,2.25-67.79,0-101.21-.47-6.98-2.93-14.56-2.62-21.71h40.74Z"/>
      <path class="cls-3" d="M728.07-50.57c2.01,14.65.82,29.35,1.26,44.1,1.66,56,3.4,110.77.04,166.9-.79,13.28-5.26,32.25-4.76,44.51.32,7.74,3.16,18.16,3.51,26.45,2.57,60.47-2.62,123.13-1.42,184.17,1.62,82.75,7.71,163.83,2.67,247.1-.83,13.79-5.31,32.95-4.76,45.82.31,7.36,3.14,17.23,3.52,25.13,2.87,60.65-2.63,124.15-1.42,185.49,1.62,82.76,7.65,163.81,2.67,247.1-.83,13.8-5.31,32.94-4.76,45.82.31,7.36,3.14,17.23,3.52,25.13,2.83,59.77-2.59,122.41-1.43,182.86.92,48.05,4.84,96.52,5.37,144.5.3,26.6-1.22,53.04-1.37,79.6h-30.23c-.2-5.44.3-10.97-.01-16.42-5.94-102.73-2.3-208.62-.04-311.66,3.24-147.65-4.52-295.09-1.21-442.96,3.75-167.51-3.67-334.78,0-502.23,2.46-112.19.13-220.72-1.42-332.63-.41-29.58.42-59.23.05-88.8h30.23Z"/>
      <path class="cls-3" d="M303.55-50.57c1.51,16.45.78,32.87,1.26,49.36,1.31,45.09,3.57,90.22,1.42,135.42-1.34,28.06-6.05,53.66-4.16,81.62,4.59,67.82-1.24,137.85.1,206.31,1.56,79.53,7.45,158.17,2.67,237.9-.86,14.41-5.28,33.91-4.97,47.34.2,8.79,3.28,20.76,3.72,30.19,2.87,60.9-2.63,125.03-1.42,186.8,1.41,71.72,7.45,143.69,4.05,215.62-1.31,27.83-6.11,54.01-4.16,81.62,4.92,69.51.13,144.77,1.53,215.4,1.37,69.2,4.6,137.95,2.57,207.12h-30.23c-2.47-25.08-.86-50.43-1.26-75.65-1.36-85.7-.86-170.65,1.21-256.37,3.58-148.32-4.72-297.02-1.21-445.59,3.97-167.89-3.95-335.63,0-503.54,2.48-105.61.06-207.57-1.42-312.91-.47-33.53.46-67.12.05-100.63h30.23Z"/>
      <path class="cls-2" d="M329.83-50.57c.67,32.61-.88,65.38-.05,98,.98,38.7,3.81,78.2,6.64,116.95,1.18,16.18,4.88,33.93,5.31,49.91.86,32.41-5.98,71.98-7.93,105.25-6.41,108.95-6.29,222.43,1.31,331.29,1.76,25.2,7.6,54.13,6.55,78.88-1.28,30.05-6.06,61.7-7.86,92.06-6.47,109.27-6.3,223.45,1.31,332.6,1.76,25.25,7.6,54.01,6.55,78.88-1.28,30.04-6.07,61.66-7.86,92.06-5.91,100.14-4.85,199.57.04,299.69.31,6.34-.33,12.79-.05,19.12h-27.6c2.03-69.17-1.21-137.93-2.57-207.12-1.4-70.63,3.39-145.89-1.53-215.4-1.95-27.61,2.84-53.79,4.16-81.62,3.39-71.93-2.64-143.9-4.05-215.62-1.21-61.77,4.29-125.9,1.42-186.8-.44-9.44-3.52-21.4-3.72-30.19-.31-13.43,4.1-32.93,4.97-47.34,4.78-79.73-1.11-158.37-2.67-237.9-1.34-68.46,4.49-138.48-.1-206.31-1.89-27.96,2.82-53.55,4.16-81.62,2.15-45.19-.12-90.33-1.42-135.42-.48-16.49.25-32.91-1.26-49.36h26.29Z"/>
      <path class="cls-2" d="M754.36-50.57c.6,30.43-.78,60.99-.05,91.43,1.37,57.47,10.03,115.56,11.95,172.11,1.14,33.68-5.93,74.64-7.94,109.2-6.61,114.04-5.54,229.25,2.63,343.12,1.57,21.83,6.23,43.76,5.23,65.73-1.38,30.56-6.07,62.52-7.86,93.37-6.64,114.46-5.71,230.13,2.63,344.44,1.59,21.86,6.23,43.72,5.23,65.73-2.82,62.19-10.48,124.37-11.87,186.65-1.66,74.34.18,148.92,5.31,222.9h-28.92c.15-26.55,1.66-53,1.37-79.6-.53-47.99-4.45-96.45-5.37-144.5-1.16-60.46,4.26-123.09,1.43-182.86-.37-7.9-3.2-17.78-3.52-25.13-.55-12.89,3.94-32.02,4.76-45.82,4.98-83.29-1.04-164.34-2.67-247.1-1.2-61.34,4.29-124.84,1.42-185.49-.37-7.9-3.2-17.78-3.52-25.13-.54-12.87,3.93-32.03,4.76-45.82,5.04-83.27-1.04-164.35-2.67-247.1-1.2-61.04,3.99-123.7,1.42-184.17-.35-8.28-3.2-18.7-3.51-26.45-.5-12.26,3.97-31.23,4.76-44.51,3.36-56.13,1.62-110.91-.04-166.9-.44-14.74.75-29.45-1.26-44.1h26.29Z"/>
      <path class="cls-3" d="M512.52-50.57c-.31,7.15,2.15,14.72,2.62,21.71,2.25,33.42.63,67.51,0,101.21-2.16,115.13,8.65,230.54,1.32,345.78-.73,11.53-4.06,25.78-4.05,36.82,0,5.88,2.44,12.66,2.73,18.42,2.83,56.2-2.23,111.71-1.35,168.32,1.45,93.56,8.71,186.06,2.67,279.97-.72,11.21-3.98,24.64-4.03,35.49-.03,6.66,2.4,13.44,2.72,19.76,1.74,34.31.65,67.99,0,102.52-2.16,115.13,8.65,230.53,1.31,345.77-.71,11.14-4.06,24.78-4.05,35.51.01,20.61,4.07,44.36,4.13,65.68.1,39.23-4.37,78.32-2.69,117.72h-27.6c.29-11.16-.37-22.41-.05-33.58,4.38-153.35-2.89-305.72.11-458.73,3.3-168.1-3.29-335.8,0-503.54,3.8-193.58-2.76-386.42,1.21-579.9.06-3.11,1.36-5.99,1.42-9.09.72-36.58-.65-73.27-.05-109.83h23.66Z"/>
      <path class="cls-3" d="M88-50.57c-.49,8.04,2.25,16.39,2.68,24.27,1.83,33.59-1.01,66.66-1.42,99.92-1.44,114.8,9.68,228.25,2.67,343.19-.71,11.69-3.93,25.32-4.01,36.78-.2,29.13,3.27,59.12,2.65,89.39-2.56,125.76,9.18,252.35,1.35,377.37-.71,11.34-3.83,24.36-3.99,35.45-.44,29.25,3.26,60.21,2.64,90.73-2.55,125.39,9.03,251.36,1.36,376.05-.72,11.69-3.9,25.46-4.01,36.78-.27,28.92,3.18,59.32,2.65,89.39-.56,31.79-1.85,63.48-1.26,95.37h-27.6c.33-12.91-.43-25.92-.05-38.84,4.44-154.61-2.94-308.26.11-462.68,3.32-168.11-3.31-335.69,0-503.54,2.39-121.39,1.32-241.64,0-362.97-.81-73.96,1.08-145.72,2.63-219.45.75-35.7-.67-71.52-.05-107.2h23.66Z"/>
      <path class="cls-3" d="M415.26-50.57c.39,8.94-.51,18.06-.05,27.01,2.98,57.99-3.26,116.56-5.26,174.75-3.87,112.44.2,216.8,5.33,328.72,3.2,70.02-4.67,141.44-6.64,211.63-2.79,99.54,2.24,193.02,6.64,291.91,2.13,47.88-2.25,92.77-4.01,140.64-3.41,92.62-6.13,186.19-1.31,278.83,2.78,53.5,11.73,106.79,3.94,160.29l-2.57,80.91h-31.54c.44-16.73.29-33.91,1.33-50.6,1.83-29.49,7.71-58.48,6.61-88.15-2.03-54.57-1.39-109.55-2.74-164.23-2.2-89.38-8.96-178.82-2.56-268.25,1.75-24.5,6.23-45.87,5.3-71.06-2.02-54.56-1.37-109.55-2.74-164.23-2.23-89.37-8.94-178.81-2.56-268.25,1.75-24.48,6.23-45.84,5.3-71.06-2.02-54.56-1.37-109.55-2.74-164.23-2.22-88.96-8.91-177.91-2.56-266.93,1.05-14.78,4.48-29.99,5.3-44.66,1.02-18.22-1.79-35.94-2.67-53.97-.31-6.33.19-12.73-.01-19.05h30.23Z"/>
      <path class="cls-3" d="M839.79-50.57c-1.46,18.99,2.84,38.45,2.68,57.25-.14,16.24-3.36,34.66-4.05,51.16-4.26,102.42-9.54,207.97-5.26,310.38,1.86,44.4,9.05,91.38,9.32,135.3.11,18.55-3.29,39.11-4.06,57.86-4.18,102.09-9.47,206.97-5.26,309.07,1.85,44.85,9.05,92.24,9.32,136.62.11,18.17-3.31,38.21-4.06,56.54-4.21,102.43-9.48,207.88-5.26,310.38,1.85,44.86,9.08,92.24,9.32,136.62.15,28.04-4.16,59.68-5.37,88.1-.65,15.09-.18,30.33-1.26,45.41h-31.54c.97-22.06.9-44.36,2.64-66.38,1.3-16.48,6.7-38.67,6.68-53.92-.03-21.46-2.65-43.33-2.7-65.68-.09-41.3-.38-82.47-1.42-123.58-2.47-97.09-8.75-189.31.07-286.65.73-8.11,3.97-18.8,4.04-26.32.21-21.46-2.64-44.48-2.68-66.99-.09-40.86-.41-81.6-1.42-122.27-2.42-97.31-9-190.46.07-287.96.76-8.14,3.99-18.54,4.04-26.32.15-21.49-2.62-44.46-2.69-66.99-.12-40.86-.4-81.6-1.42-122.27-2.3-91.64-9.44-183.23-1.25-274.83,1.06-11.83,5.12-27.04,5.34-38.12.32-16.32-3.5-35.87-4.09-52.55-.17-4.87.39-9.16,1.37-13.86h28.92Z"/>
      <path class="cls-3" d="M197.09-50.57c-.74,2.34-1.25,4.68-1.36,7.17-3.8,80.29,1.89,160.88,6.61,240.67,3.53,59.75-.4,117.77-2.56,177.53-2.79,77.19-6.24,155.05-4.05,232.71,1.7,60.28,10.41,119.61,7.93,180.05-4.41,107.45-11.02,215.46-7.93,323.49,1.49,52.02,10.81,107.6,9.24,159.01-2,65.65-7.9,131.37-9.24,197.17-1.2,58.9.29,118.18,1.37,176.89h-22.34c-2.27-20.33-.61-40.78-1.26-61.19-2.66-83.89-9.67-166.91-3.98-251.05,1.23-18.23,5.54-37.52,6.62-55.17,1.3-21.42-1.65-50.61-1.64-73.68.09-133.61-14.47-270.76-2.35-403.61.8-8.76,3.46-17.5,3.99-26.25,1.31-21.45-1.67-50.58-1.64-73.68.16-133.17-14.51-269.9-2.35-402.29,1.34-14.59,4.42-25.3,3.92-40.76-.68-20.81-1.82-39.04-1.8-60.27.07-55.06-1.45-109.59-3.5-164.51-1.02-27.4-1.5-54.84-2.57-82.22h28.92Z"/>
      <path class="cls-3" d="M621.61-50.57c.8,4.73-1.13,9.18-1.37,13.75-4.36,84.84,3.59,169.44,7.93,253.81,4.15,80.7-6.3,167.22-7.93,248.42-1.75,87.2,3.45,168.69,7.93,255.13,4.18,80.62-6.33,167.26-7.93,248.42-1.71,86.81,3.54,167.79,7.93,253.81,4.14,81.12-6.32,168.1-7.93,249.73-1.13,57.19.42,114.62,1.37,171.63h-22.34c-2.2-112.93-12.26-225.57-2.62-338.53,1.31-15.38,4.43-27.32,3.99-43.46-.81-29.95-1.46-58.16-1.32-87.97.58-124.42-13.32-247.46-2.67-372.11,1.31-15.37,4.47-27.33,3.99-43.46-.89-30-1.46-58.11-1.32-87.97.56-124.43-13.3-247.43-2.67-372.11,1.31-15.37,4.47-27.23,3.99-43.46-.6-20.21-1.61-37.43-1.51-57.93.27-56.59-1.73-112.92-3.87-169.41-.99-26.09-1.03-52.23-2.57-78.28h28.92Z"/>
      <path class="cls-2" d="M653.16-50.57c5.04,22.58,4.41,45.96,4,69.08-1.09,61.63-11.56,121.29-13.25,182.64-1.67,60.51.73,121.43,3.98,181.5,2.54,46.81,10.15,92.56,9.27,139.4-1.16,61.62-11.59,121.29-13.25,182.64-1.64,60.5.71,121.44,3.98,181.5,2.57,47.23,10.16,92.27,9.27,139.4-1.16,61.23-11.57,120.44-13.25,181.32-1.57,57.03-.34,118.18,2.63,174.97,2.57,49.01,11.45,95.57,10.63,144.63-.38,22.64-.78,49.77-2.71,72.23-1.25,14.5-6.64,30.34-6.55,45.38h-26.29c-.95-57-2.5-114.44-1.37-171.63,1.61-81.63,12.07-168.61,7.93-249.73-4.39-86.02-9.64-167-7.93-253.81,1.6-81.15,12.1-167.8,7.93-248.42-4.48-86.43-9.68-167.92-7.93-255.13,1.63-81.2,12.08-167.71,7.93-248.42-4.34-84.37-12.29-168.97-7.93-253.81.24-4.57,2.17-9.02,1.37-13.75h31.54Z"/>
      <path class="cls-2" d="M228.63-50.57c4.53,21.44,4.38,43.24,4,65.13-.62,35.31-4.08,67.9-7.77,102.66-8.84,83.14-7.32,176.68-2.85,260.2,2.51,46.8,11.38,92.55,10.62,139.36-.95,58.27-9.7,115.32-11.83,173.54-2.31,63.25-2.21,127.49,1.21,190.64,2.53,46.78,11.44,92.55,10.62,139.36-.7,40.16-5.09,76.16-9.25,115.65-8.14,77.33-5.59,170.64-1.38,248.53,2.51,46.33,11.35,91.72,10.63,138.06-.55,35.49-3.26,68.96-7.78,103.97-.74,5.75-1.02,11.8-1.48,17.58h-26.29c-1.08-58.71-2.57-117.98-1.37-176.89,1.34-65.79,7.24-131.52,9.24-197.17,1.57-51.41-7.75-107-9.24-159.01-3.09-108.03,3.52-216.04,7.93-323.49,2.48-60.44-6.23-119.77-7.93-180.05-2.19-77.66,1.26-155.51,4.05-232.71,2.16-59.76,6.09-117.78,2.56-177.53-4.71-79.79-10.41-160.38-6.61-240.67.12-2.49.63-4.82,1.36-7.17h31.54Z"/>
      <path class="cls-3" d="M36.74-50.57c1.08,68.98-1.42,138.14-.05,207.12,1.06,53.63,9.74,114.48,6.69,166.98-.65,11.27-4.38,22.27-5.3,32.83-1.58,18.16.41,39.26.03,57.88-2.19,107.45-3.02,215.99,1.21,323.42,1.17,29.82,5.8,59.37,4.06,89.41-.63,10.96-4.36,21.47-5.31,31.5-1.7,17.9.42,39.42.04,57.89-2.2,107.45-2.96,215.96,1.21,323.42,1.16,29.8,5.76,59.4,4.06,89.41-.66,11.6-4.48,23.17-5.37,34.07-1.76,21.5-.97,45.41-1.33,67.04-1.19,71.19,1.02,142.52.06,213.71H10.45c-1.1-14.66-.75-29.41-1.26-44.1-2.36-67.83-5.16-138.56,1.27-206.35,1.61-16.96,6.67-35.13,7.92-51.24,2.49-32.04,3.41-81.26,1.33-113.18-2.33-35.73-9-72.11-10.63-109.01-3.26-73.74-5.44-155.55,1.38-228.81,1.62-17.44,6.64-35.95,7.93-52.55,2.46-31.72,3.53-81.66,1.33-113.17-2.48-35.43-8.99-71.05-10.63-107.69-3.89-86.78-5.13-177.84,5.69-263.93,10.22-81.29,1.32-158.65-5.69-239.61-.39-55.1-4.71-110.02-1.26-165.05h28.92Z"/>
      <path class="cls-3" d="M461.27-50.57c.97,65.92-1.28,132-.05,197.92,1.06,57.07,9.92,121.59,6.69,177.5-.65,11.31-4.49,22.25-5.37,32.76-1.89,22.6.47,49.21.1,72.41-1.62,101.13-2.58,202.57,1.21,303.7,1.18,31.55,5.97,62.91,4.06,94.67-.65,10.75-4.4,21.51-5.31,31.5-2.04,22.4.42,49.29.04,72.35-1.67,101.11-2.55,202.58,1.21,303.7,1.22,32.71,6.41,65.65,3.98,98.53-.71,9.66-4.51,19.65-5.29,28.89-2.08,24.78-.98,57.19-1.33,82.81-.9,65.95.8,131.99.06,197.93h-26.29c-2.12-51.91-3.5-103.79-4-155.85-.63-86.91,19.37-172.97,13.26-260.32-1.91-27.27-7.54-55.72-9.25-84.1-5.31-88.34-7.27-188.16,2.8-275.89.99-8.62,4.31-18.31,5.06-26.49,2.91-31.96,3.62-85.09,1.39-117.06-1.87-26.8-7.55-54.9-9.25-82.78-5.36-88.29-7.44-189.65,2.8-277.21,5.25-44.85,9.62-96.84,6.44-142.24-.77-10.96-4.22-21.82-5.31-32.82-5.43-54.92-7.55-115.7-7.95-170.85-.17-23.09.9-46.04,1.37-69.08h28.92Z"/>
      <path class="cls-2" d="M810.88-50.57c-.98,4.7-1.54,8.99-1.37,13.86.58,16.68,4.41,36.23,4.09,52.55-.22,11.08-4.28,26.29-5.34,38.12-8.18,91.6-1.04,183.19,1.25,274.83,1.02,40.67,1.3,81.41,1.42,122.27.07,22.53,2.84,45.5,2.69,66.99-.05,7.77-3.28,18.17-4.04,26.32-9.07,97.51-2.49,190.66-.07,287.96,1.01,40.67,1.34,81.41,1.42,122.27.05,22.51,2.9,45.53,2.68,66.99-.07,7.52-3.31,18.2-4.04,26.32-8.82,97.35-2.53,189.56-.07,286.65,1.04,41.11,1.33,82.29,1.42,123.58.05,22.36,2.67,44.22,2.7,65.68.02,15.25-5.38,37.43-6.68,53.92-1.74,22.02-1.67,44.32-2.64,66.38h-23.66c-1.07-59.63-2.4-119.69-1.37-179.51.84-48.59.82-105.7,8.95-152.76,7.64-44.23-5.58-116.45-7.63-163.98-2.8-65.01-1.16-130.9.11-195.89.93-47.83-.55-96.95,7.52-143.67,7.62-44.08-5.57-115.38-7.63-162.66-4.39-100.38-3.1-211.31,2.7-311.63,1.34-23.24,7.24-40.87,6.62-65.81-1.38-55.51-9.43-111.99-10.63-168.17-1.08-50.14.92-100.45.05-150.59h31.54Z"/>
      <path class="cls-2" d="M385.03-50.57c.2,6.32-.29,12.72.01,19.05.88,18.04,3.69,35.76,2.67,53.97-.82,14.67-4.25,29.88-5.3,44.66-6.35,89.03.35,177.97,2.56,266.93,1.36,54.68.72,109.68,2.74,164.23.93,25.22-3.55,46.58-5.3,71.06-6.38,89.43.34,178.87,2.56,268.25,1.36,54.68.72,109.68,2.74,164.23.93,25.2-3.55,46.57-5.3,71.06-6.39,89.43.36,178.87,2.56,268.25,1.35,54.68.71,109.67,2.74,164.23,1.1,29.68-4.78,58.67-6.61,88.15-1.04,16.69-.89,33.88-1.33,50.6h-23.66c-1.21-62.21-2.49-125-1.37-187.4.88-49,2.27-99.13,9.11-147.34,5.6-39.4-4-88.61-6.42-128.72-4.73-78.39-2.85-158.16-1.27-236.58.96-47.39.73-91.53,7.69-138.25,3.39-22.74.37-51.54-1.18-74.78-8.85-132.62-12.1-266.81-3.92-399.68,1.28-20.73,6.92-37.07,6.62-59.24-.73-54.26-9.37-110.49-10.63-165.54-1.2-52.33,1.01-104.84.05-157.16h30.23Z"/>
      <path class="cls-3" d="M885.79-50.57c.92,64.17-1.21,128.49-.05,192.66,1.06,58.97,10.24,126.39,6.69,184.07-.65,10.49-4.4,20.56-5.31,30.19-2.34,24.6.42,54.83.04,80.24-1.47,98.13-2.33,196.35,1.21,294.5,1.21,33.59,6.48,67.38,3.98,101.16-.71,9.66-4.51,19.65-5.29,28.89-2.03,24.21.47,52.81.1,77.67-1.46,98.11-2.34,196.35,1.21,294.5,1.22,33.65,6.31,67.32,3.98,101.17-.7,10.18-4.48,20.5-5.29,30.21-2.21,26.37-.98,60.81-1.33,88.07-.81,63.76.74,127.61.06,191.36h-26.29c-.65-18.18-.72-36.42-1.26-54.62-1.44-48.21-3.01-97.55-1.42-145.94,1.58-48.16,10.2-95.19,11.94-143.2.89-24.49,2.54-53.45-.21-77.47-10.73-93.62-14.86-188.25-11.73-282.88,1.6-48.26,10.22-94.81,11.94-143.2.87-24.5,2.55-53.46-.19-77.49-10.64-93.29-14.78-187.23-11.75-281.54,1.55-48.16,10.19-95.21,11.94-143.2.9-24.8,2.56-54.48-.19-78.8-5.53-48.9-10.54-95.21-11.75-144.7-.99-40.5.85-81.17.05-121.67h28.92Z"/>
      <path class="cls-3" d="M675.5-50.57c.96,14.16.54,28.56,1.33,42.72,1.73,31.22,5.78,60.42,2.46,91.89-8.66,82.09-7.14,174.47-6.47,257.89.53,66.72,5.65,133.09,7.99,199.73,1.03,29.27-3.88,57.78-5.26,86.88-4.79,101.64-2.77,207.17,0,308.85,1.31,48.14,8.6,105.88,3.73,152.4-8.57,81.82-7.06,173.46-6.47,256.6.48,67.62,5.7,134.84,8,202.35.82,24.16-3.35,40.66-5.3,63.17-.92,10.67,1.43,21.71-1.33,32.2h-26.29c-.09-15.04,5.3-30.88,6.55-45.38,1.93-22.45,2.34-49.58,2.71-72.23.81-49.06-8.07-95.62-10.63-144.63-2.97-56.79-4.2-117.94-2.63-174.97,1.68-60.89,12.09-120.1,13.25-181.32.9-47.13-6.7-92.17-9.27-139.4-3.27-60.06-5.62-121-3.98-181.5,1.66-61.35,12.09-121.01,13.25-182.64.88-46.85-6.73-92.59-9.27-139.4-3.26-60.07-5.65-120.99-3.98-181.5,1.69-61.35,12.16-121.01,13.25-182.64.41-23.12,1.04-46.5-4-69.08h22.34Z"/>
      <path class="cls-2" d="M592.7-50.57c1.54,26.05,1.59,52.19,2.57,78.28,2.14,56.49,4.14,112.82,3.87,169.41-.1,20.49.91,37.72,1.51,57.93.48,16.23-2.68,28.09-3.99,43.46-10.62,124.68,3.23,247.68,2.67,372.11-.13,29.86.43,57.97,1.32,87.97.48,16.13-2.68,28.09-3.99,43.46-10.65,124.65,3.25,247.69,2.67,372.11-.14,29.81.51,58.02,1.32,87.97.44,16.14-2.68,28.08-3.99,43.46-9.65,112.96.42,225.6,2.62,338.53h-30.23c-.42-3.83,1.14-7.37,1.37-11.13,1.46-24.35-.38-43.26,4.87-67.44,8.32-38.36-4-103.31-6.22-144.3-4.49-82.7-2.32-165.9.04-248.42,1.05-36.68-.48-74.19,5.92-109.77,7.82-43.46-3.59-100.57-6.03-145.29-4.5-82.68-2.28-165.99.11-248.48,1.07-37.02-.57-74.84,6.13-110.88,7.73-41.58-3.84-99.77-6.17-142.93-5.81-107.76-2.44-219.66,2.67-327.3,1.35-28.47,7.44-55.1,5.26-84.25l-4-54.51h19.71Z"/>
      <path class="cls-3" d="M250.97-50.57c.67,31.37,2.59,62.7,5.31,93.95-9.45,108.85-8.36,219.29-6.57,328.68.94,57.53.51,115.05,6.5,172.3-9.16,109.78-8.31,220.94-6.5,331.24.94,57.53.54,115.04,6.5,172.3-7.71,106.25-9.41,213.88-7.94,320.84.84,60.95,6.01,121.87,7.94,182.7,1.02,32.15-6.96,60.85-6.56,92.68h-26.29c.46-5.79.74-11.83,1.48-17.58,4.52-35.01,7.23-68.48,7.78-103.97.72-46.34-8.13-91.73-10.63-138.06-4.21-77.89-6.76-171.2,1.38-248.53,4.16-39.49,8.55-75.49,9.25-115.65.82-46.81-8.09-92.58-10.62-139.36-3.42-63.15-3.52-127.38-1.21-190.64,2.13-58.22,10.88-115.27,11.83-173.54.76-46.81-8.12-92.56-10.62-139.36-4.47-83.52-5.99-177.07,2.85-260.2,3.7-34.76,7.16-67.36,7.77-102.66.38-21.9.53-43.69-4-65.13h22.34Z"/>
      <path class="cls-2" d="M168.17-50.57c1.07,27.38,1.55,54.82,2.57,82.22,2.05,54.92,3.57,109.45,3.5,164.51-.03,21.23,1.12,39.46,1.8,60.27.5,15.46-2.58,26.16-3.92,40.76-12.16,132.39,2.52,269.12,2.35,402.29-.03,23.1,2.94,52.24,1.64,73.68-.53,8.75-3.19,17.49-3.99,26.25-12.12,132.85,2.44,270,2.35,403.61-.02,23.07,2.94,52.26,1.64,73.68-1.07,17.65-5.39,36.94-6.62,55.17-5.69,84.14,1.32,167.16,3.98,251.05.65,20.41-1.01,40.86,1.26,61.19h-30.23l2.59-69.06c12.47-48.1.12-101.8-2.58-151.17-5.4-98.67-2.65-199.79,1.36-298.38.96-23.69.22-40.2,4.9-63.47,7.83-38.96-3.96-99.4-6.25-140.38-5.53-98.88-2.74-200.88,1.36-299.69.94-22.79.05-40.06,4.63-62.42,8.13-39.68-3.65-99.79-5.98-141.43-5.53-98.86-2.75-200.88,1.36-299.69.95-22.97.52-39.74,4.61-62.44,5.52-30.64.2-63.28-2.02-94.07-.3-4.14.16-8.35-.01-12.48h19.71Z"/>
      <path class="cls-2" d="M856.88-50.57c.8,40.5-1.04,81.17-.05,121.67,1.21,49.5,6.22,95.81,11.75,144.7,2.75,24.32,1.09,54,.19,78.8-1.74,47.99-10.39,95.03-11.94,143.2-3.03,94.31,1.11,188.25,11.75,281.54,2.74,24.03,1.06,52.99.19,77.49-1.72,48.39-10.34,94.94-11.94,143.2-3.13,94.63.99,189.26,11.73,282.88,2.75,24.01,1.1,52.98.21,77.47-1.74,48-10.36,95.04-11.94,143.2-1.58,48.39-.01,97.73,1.42,145.94.54,18.2.61,36.44,1.26,54.62h-23.66c1.08-15.08.61-30.32,1.26-45.41,1.22-28.41,5.53-60.05,5.37-88.1-.24-44.38-7.47-91.76-9.32-136.62-4.23-102.51,1.04-207.96,5.26-310.38.75-18.33,4.17-38.37,4.06-56.54-.27-44.38-7.47-91.76-9.32-136.62-4.21-102.1,1.08-206.98,5.26-309.07.77-18.75,4.17-39.3,4.06-57.86-.27-43.92-7.46-90.91-9.32-135.3-4.28-102.42.99-207.97,5.26-310.38.69-16.5,3.91-34.92,4.05-51.16.16-18.81-4.14-38.26-2.68-57.25h17.09Z"/>
      <path class="cls-2" d="M7.82-50.57c-3.45,55.03.87,109.95,1.26,165.05,7.02,80.96,15.92,158.32,5.69,239.61-10.83,86.1-9.58,177.15-5.69,263.93,1.64,36.65,8.15,72.27,10.63,107.69,2.2,31.51,1.14,81.45-1.33,113.17-1.29,16.6-6.3,35.11-7.93,52.55-6.82,73.26-4.64,155.07-1.38,228.81,1.63,36.9,8.3,73.28,10.63,109.01,2.08,31.91,1.16,81.14-1.33,113.18-1.25,16.11-6.31,34.28-7.92,51.24-6.43,67.79-3.63,138.52-1.27,206.35.51,14.69.16,29.43,1.26,44.1H-13.21c.29-48.09,5.01-95.98,5.31-144.02-14.3-147.91-8.56-296.15-2.74-444.38,2.92-74.24-4.76-139.66-6.57-212.88-2.65-106.98,5.56-212.94,9.31-319.48,1.44-40.95-4.46-81.57-6.61-122.34C-21.75,264.09-12.59,127.55-7.9-9.21l-2.68-41.36H7.82Z"/>
      <path class="cls-2" d="M432.35-50.57c-.47,23.04-1.54,45.98-1.37,69.08.4,55.15,2.52,115.93,7.95,170.85,1.09,11,4.54,21.86,5.31,32.82,3.18,45.4-1.2,97.39-6.44,142.24-10.24,87.56-8.17,188.92-2.8,277.21,1.69,27.88,7.37,55.99,9.25,82.78,2.24,31.97,1.53,85.09-1.39,117.06-.74,8.18-4.07,17.87-5.06,26.49-10.07,87.73-8.11,187.55-2.8,275.89,1.71,28.38,7.34,56.83,9.25,84.1,6.11,87.35-13.89,173.41-13.26,260.32.5,52.06,1.88,103.94,4,155.85h-23.66l2.57-80.91c7.78-53.5-1.16-106.79-3.94-160.29-4.82-92.64-2.1-186.21,1.31-278.83,1.76-47.87,6.14-92.76,4.01-140.64-4.4-98.89-9.43-192.37-6.64-291.91,1.97-70.19,9.84-141.61,6.64-211.63-5.12-111.93-9.19-216.29-5.33-328.72,2-58.19,8.24-116.76,5.26-174.75-.46-8.94.45-18.06.05-27.01h17.09Z"/>
      <path class="cls-2" d="M913.39-50.57c-.56,37.45.73,75.01.05,112.46-.05,2.8-1.31,5.37-1.36,7.85-3.44,179.21,1.75,358.28-1.38,537.66-2.94,167.92,2.94,335.51,0,503.54-2.94,168.06,5.47,335.41,0,503.54-.32,9.85.34,19.79.05,29.64h-24.97c.68-63.75-.88-127.6-.06-191.36.35-27.26-.88-61.7,1.33-88.07.81-9.7,4.59-20.03,5.29-30.21,2.33-33.85-2.77-67.52-3.98-101.17-3.55-98.15-2.66-196.39-1.21-294.5.37-24.86-2.13-53.46-.1-77.67.77-9.24,4.57-19.24,5.29-28.89,2.5-33.78-2.77-67.57-3.98-101.16-3.53-98.15-2.68-196.37-1.21-294.5.38-25.41-2.38-55.64-.04-80.24.91-9.63,4.66-19.7,5.31-30.19,3.55-57.68-5.63-125.1-6.69-184.07-1.16-64.17.98-128.49.05-192.66h27.6Z"/>
      <path class="cls-3" d="M572.98-50.57l4,54.51c2.18,29.15-3.91,55.78-5.26,84.25-5.11,107.64-8.48,219.54-2.67,327.3,2.33,43.16,13.89,101.35,6.17,142.93-6.7,36.04-5.05,73.86-6.13,110.88-2.39,82.5-4.61,165.81-.11,248.48,2.44,44.72,13.86,101.83,6.03,145.29-6.41,35.58-4.87,73.09-5.92,109.77-2.36,82.51-4.53,165.72-.04,248.42,2.22,40.98,14.54,105.94,6.22,144.3-5.25,24.18-3.4,43.09-4.87,67.44-.23,3.76-1.79,7.3-1.37,11.13h-24.97c.27-25.63,1.07-51.27,2.64-76.9,1.76-28.67,8.05-63.05,7.98-90.73-.05-19.12-5.25-43.29-6.67-63.12-9.28-129.6-7.41-257.02,1.32-386.51,1.13-16.84,5.43-37.68,5.35-53.92-.06-14.12-4.26-32.57-5.36-47.34-9.04-121.41-10.12-242.83-2.62-364.16,1.79-28.93,8.19-64.16,7.99-92.04-.11-14.2-4.25-32.53-5.36-47.34-9.1-121.37-10.11-242.85-2.62-364.16,1.78-28.88,7.44-61.28,7.92-89.48.1-6.01-2.52-12.58-1.36-19h19.71Z"/>
      <path class="cls-3" d="M148.46-50.57c.17,4.13-.29,8.34.01,12.48,2.22,30.79,7.54,63.43,2.02,94.07-4.09,22.7-3.66,39.47-4.61,62.44-4.1,98.81-6.88,200.83-1.36,299.69,2.33,41.64,14.11,101.75,5.98,141.43-4.58,22.36-3.68,39.63-4.63,62.42-4.09,98.82-6.88,200.81-1.36,299.69,2.29,40.99,14.08,101.42,6.25,140.38-4.68,23.27-3.93,39.78-4.9,63.47-4,98.58-6.76,199.7-1.36,298.38,2.7,49.37,15.05,103.07,2.58,151.17l-2.59,69.06h-26.29c2.44-26.34,2.28-53,3.96-79.53,1.74-27.45,8.11-61.8,7.87-88.1-.27-29.76-7.3-66.35-9.19-97.3-7.52-123.61-3.29-247.21,5.25-370.73.76-10.93,4.03-25.04,3.93-35.51-.21-23.51-6.15-53.11-7.87-77.58-8.3-118.12-6.2-238.1,1.31-356.26,1.38-21.77,6.75-48.77,6.56-69.7-.21-23.44-6.16-53.12-7.87-77.58-7.78-110.99-6.82-225.49,0-336.54,1.73-28.21,7.58-60.68,7.87-88.1.05-5.01-2.64-11.99-1.31-17.75h19.71Z"/>
      <path class="cls-2" d="M488.87-50.57c-.59,36.57.77,73.26.05,109.83-.06,3.11-1.36,5.98-1.42,9.09-3.96,193.49,2.59,386.32-1.21,579.9-3.29,167.74,3.3,335.45,0,503.54-3,153.02,4.28,305.38-.11,458.73-.32,11.17.35,22.42.05,33.58h-24.97c.74-65.94-.96-131.98-.06-197.93.35-25.62-.75-58.03,1.33-82.81.77-9.24,4.57-19.24,5.29-28.89,2.43-32.89-2.76-65.82-3.98-98.53-3.76-101.13-2.88-202.6-1.21-303.7.38-23.06-2.08-49.96-.04-72.35.91-10,4.66-20.75,5.31-31.5,1.91-31.76-2.88-63.12-4.06-94.67-3.79-101.13-2.82-202.57-1.21-303.7.37-23.2-1.99-49.81-.1-72.41.88-10.51,4.71-21.45,5.37-32.76,3.23-55.91-5.63-120.43-6.69-177.5-1.22-65.92,1.03-132,.05-197.92h27.6Z"/>
      <path class="cls-2" d="M64.34-50.57c-.62,35.69.8,71.51.05,107.2-1.54,73.73-3.44,145.49-2.63,219.45,1.32,121.33,2.39,241.58,0,362.97-3.31,167.85,3.32,335.44,0,503.54-3.05,154.41,4.33,308.06-.11,462.68-.37,12.92.38,25.93.05,38.84h-24.97c.96-71.18-1.25-142.52-.06-213.71.36-21.63-.43-45.54,1.33-67.04.89-10.9,4.71-22.47,5.37-34.07,1.7-30.01-2.9-59.61-4.06-89.41-4.17-107.46-3.41-215.97-1.21-323.42.38-18.47-1.74-39.99-.04-57.89.95-10.04,4.68-20.54,5.31-31.5,1.74-30.04-2.89-59.59-4.06-89.41-4.23-107.44-3.4-215.98-1.21-323.42.38-18.62-1.61-39.72-.03-57.88.92-10.55,4.65-21.56,5.3-32.83,3.05-52.5-5.63-113.35-6.69-166.98-1.36-68.98,1.13-138.14.05-207.12h27.6Z"/>
      <path class="cls-3" d="M354.8-50.57c.95,52.33-1.25,104.84-.05,157.16,1.26,55.05,9.9,111.27,10.63,165.54.3,22.17-5.34,38.51-6.62,59.24-8.18,132.87-4.93,267.05,3.92,399.68,1.55,23.25,4.57,52.05,1.18,74.78-6.96,46.72-6.73,90.86-7.69,138.25-1.58,78.42-3.46,158.19,1.27,236.58,2.42,40.11,12.02,89.31,6.42,128.72-6.85,48.2-8.23,98.33-9.11,147.34-1.12,62.41.16,125.2,1.37,187.4h-22.34c-.27-6.33.36-12.78.05-19.12-4.89-100.13-5.95-199.55-.04-299.69,1.79-30.4,6.58-62.01,7.86-92.06,1.06-24.87-4.78-53.63-6.55-78.88-7.61-109.15-7.79-223.33-1.31-332.6,1.8-30.36,6.58-62,7.86-92.06,1.05-24.76-4.79-53.69-6.55-78.88-7.6-108.86-7.72-222.33-1.31-331.29,1.96-33.28,8.8-72.85,7.93-105.25-.42-15.98-4.13-33.73-5.31-49.91-2.82-38.75-5.65-78.25-6.64-116.95-.83-32.62.73-65.39.05-98h24.97Z"/>
      <path class="cls-3" d="M779.33-50.57c.86,50.14-1.13,100.45-.05,150.59,1.21,56.18,9.25,112.66,10.63,168.17.62,24.95-5.28,42.57-6.62,65.81-5.8,100.32-7.08,211.25-2.7,311.63,2.07,47.28,15.25,118.58,7.63,162.66-8.07,46.72-6.59,95.84-7.52,143.67-1.26,65-2.91,130.88-.11,195.89,2.05,47.53,15.27,119.75,7.63,163.98-8.13,47.06-8.11,104.17-8.95,152.76-1.03,59.82.3,119.88,1.37,179.51h-21.03c-5.13-73.98-6.97-148.56-5.31-222.9,1.39-62.29,9.05-124.46,11.87-186.65,1-22.02-3.64-43.87-5.23-65.73-8.34-114.3-9.26-229.97-2.63-344.44,1.79-30.85,6.48-62.82,7.86-93.37.99-21.97-3.67-43.9-5.23-65.73-8.17-113.87-9.24-229.08-2.63-343.12,2-34.56,9.08-75.52,7.94-109.2-1.92-56.55-10.57-114.64-11.95-172.11-.73-30.43.65-61,.05-91.43h24.97Z"/>
      <path class="cls-2" d="M273.32-50.57c.41,33.51-.53,67.11-.05,100.63,1.48,105.34,3.91,207.3,1.42,312.91-3.95,167.91,3.97,335.65,0,503.54-3.51,148.57,4.78,297.26,1.21,445.59-2.07,85.73-2.56,170.68-1.21,256.37.4,25.23-1.21,50.57,1.26,75.65h-26.29c-.4-31.83,7.57-60.53,6.56-92.68-1.92-60.83-7.09-121.75-7.94-182.7-1.48-106.97.22-214.6,7.94-320.84-5.96-57.26-5.56-114.76-6.5-172.3-1.81-110.3-2.66-221.47,6.5-331.24-6-57.25-5.56-114.77-6.5-172.3-1.79-109.39-2.88-219.83,6.57-328.68-2.72-31.25-4.64-62.58-5.31-93.95h22.34Z"/>
      <path class="cls-2" d="M697.84-50.57c.36,29.57-.46,59.22-.05,88.8,1.55,111.91,3.88,220.44,1.42,332.63-3.67,167.45,3.75,334.72,0,502.23-3.31,147.86,4.44,295.31,1.21,442.96-2.26,103.04-5.9,208.92.04,311.66.32,5.45-.19,10.98.01,16.42h-26.29c2.75-10.49.4-21.53,1.33-32.2,1.95-22.51,6.12-39.02,5.3-63.17-2.3-67.52-7.53-134.73-8-202.35-.59-83.14-2.1-174.78,6.47-256.6,4.87-46.52-2.42-104.27-3.73-152.4-2.77-101.68-4.79-207.21,0-308.85,1.37-29.1,6.29-57.61,5.26-86.88-2.34-66.64-7.46-133.01-7.99-199.73-.67-83.43-2.18-175.81,6.47-257.89,3.32-31.48-.73-60.67-2.46-91.89-.79-14.15-.37-28.56-1.33-42.72h22.34Z"/>
    </g>
  </g>
</svg>