<svg width="68" height="8" viewBox="0 0 68 8" fill="none" xmlns="http://www.w3.org/2000/svg">
<g clip-path="url(#clip0_3_165)">
<g clip-path="url(#clip1_3_165)">
<mask id="mask0_3_165" style="mask-type:luminance" maskUnits="userSpaceOnUse" x="0" y="0" width="68" height="120">
<path d="M68 0H0V120H68V0Z" fill="white"/>
</mask>
<g mask="url(#mask0_3_165)">
<path d="M9.72699 -3.79277C9.62725 -3.36077 9.8305 -2.83727 9.82596 -2.46152C9.80405 -0.405018 9.36205 2.03023 9.23134 4.14598C8.71605 12.4747 8.64352 21.0622 9.23134 29.3865C9.36054 31.221 9.8101 33.447 9.82596 35.205C9.84032 36.7747 9.43534 38.7997 9.33032 40.4325C8.7629 49.2945 8.60423 58.2937 9.23134 67.152C9.3613 68.988 9.8101 71.2072 9.82596 72.9705C9.83276 73.7557 9.5857 74.814 9.52903 75.6337C8.88303 84.8977 8.56419 94.1677 9.13236 103.438C9.27441 105.76 9.80632 108.504 9.82672 110.736C9.84485 112.708 9.36281 115.285 9.2321 117.343C9.10516 119.333 9.11725 121.333 8.9329 123.308H6.74783C6.70325 120.916 6.80072 118.54 6.84303 116.155C6.88307 113.899 6.62165 111.62 6.64281 109.451C6.65112 108.602 6.89138 107.569 6.94578 106.693C7.52605 97.341 6.65036 87.8932 6.84303 78.489C6.88987 76.2007 6.61032 73.878 6.64356 71.6842C6.65641 70.8525 6.89138 69.876 6.94503 69.0255C7.53663 59.649 6.64885 50.1555 6.84303 40.7227C6.88987 38.4525 6.62694 36.2032 6.64281 34.0185C6.64885 33.159 6.89138 32.1367 6.94578 31.26C7.47543 22.6402 6.63525 14.1315 6.74405 5.52073C6.77579 3.02623 6.99036 0.545982 6.85134 -1.97327C6.81885 -2.56427 6.61183 -3.18977 6.64885 -3.79352H9.72699V-3.79277Z" fill="#677C9E"/>
<path d="M41.8026 -3.79272C41.7149 -3.31122 41.9136 -2.81847 41.9053 -2.36772C41.8691 -0.252725 41.4414 2.17802 41.3069 4.34327C40.741 13.4415 40.8173 22.5525 41.5049 31.6553C41.5888 32.7668 41.9023 34.1415 41.9099 35.2058C41.9257 37.2968 41.4414 39.939 41.3062 42.1088C40.7395 51.2085 40.8211 60.315 41.5041 69.4208C41.5872 70.5285 41.9046 71.9123 41.9091 72.9713C41.9144 74.1893 41.5903 75.7523 41.5049 77.0153C40.846 86.727 40.7048 96.2835 41.4052 106.004C41.5124 107.491 41.9053 109.303 41.9091 110.738C41.9144 112.814 41.4384 115.392 41.3062 117.542C41.1876 119.465 41.1271 121.388 41.1067 123.31H38.8227C38.6957 120.355 39.0335 117.423 39.0259 114.481C39.0221 112.882 38.7154 111.1 38.7139 109.555C38.7139 108.75 38.9662 107.727 39.0199 106.892C39.5737 98.2485 38.7577 89.5928 38.9209 80.9588C38.97 78.369 39.0516 75.843 38.9209 73.2698C38.8967 72.7958 38.7131 72.288 38.7154 71.7878C38.7192 70.974 38.9655 69.9668 39.0199 69.126C39.4762 62.0828 38.9277 55.1453 38.8181 48.1283C38.7516 43.8825 39.134 39.7193 38.9201 35.5043C38.8982 35.0715 38.7139 34.5638 38.7139 34.1228C38.7139 33.294 38.9647 32.226 39.0199 31.3613C39.5744 22.7183 38.7569 14.0625 38.9201 5.42778C38.9677 2.90028 39.0901 0.343525 38.9201 -2.16297C38.8846 -2.68647 38.6988 -3.25497 38.7222 -3.79122H41.8003L41.8026 -3.79272Z" fill="#677C9E"/>
<path d="M55.0097 -3.79275C55.1616 -2.694 55.0717 -1.5915 55.1049 -0.485251C55.2303 3.71475 55.3618 7.8225 55.1079 12.0322C55.0482 13.0282 54.7105 14.451 54.7483 15.3705C54.7725 15.951 54.987 16.7325 55.0135 17.3542C55.2077 21.8895 54.8155 26.589 54.9062 31.167C55.0286 37.3732 55.4887 43.4542 55.1079 49.6995C55.0452 50.7337 54.7067 52.1707 54.7483 53.136C54.7717 53.688 54.9855 54.4282 55.0142 55.0207C55.2311 59.5695 54.8155 64.332 54.907 68.9325C55.0294 75.1395 55.4849 81.2182 55.1087 87.465C55.046 88.5 54.7075 89.9355 54.749 90.9015C54.7725 91.4535 54.9863 92.1937 55.015 92.7862C55.2288 97.269 54.8193 101.967 54.907 106.501C54.9765 110.104 55.2726 113.74 55.3127 117.338C55.3354 119.333 55.2205 121.316 55.2092 123.308H52.9251C52.91 122.9 52.9478 122.485 52.9244 122.077C52.4756 114.372 52.7506 106.43 52.9213 98.7022C53.1661 87.6285 52.5798 76.5705 52.8299 65.4802C53.1133 52.917 52.5526 40.3717 52.8299 27.813C53.0158 19.3987 52.8397 11.259 52.7226 2.86575C52.6917 0.647249 52.7544 -1.5765 52.7264 -3.79425H55.0105L55.0097 -3.79275Z" fill="#185B89"/>
<path d="M22.9349 -3.79272C23.049 -2.55897 22.9938 -1.32747 23.0301 -0.0907248C23.1291 3.29103 23.2998 6.67577 23.1374 10.0658C23.0361 12.1703 22.6803 14.0903 22.8231 16.1873C23.1699 21.2738 22.7294 26.526 22.8306 31.6605C22.9485 37.6253 23.3935 43.5233 23.0323 49.503C22.9674 50.5838 22.6334 52.0463 22.6568 53.0535C22.6719 53.7128 22.9047 54.6105 22.9379 55.3178C23.1547 59.8853 22.7392 64.695 22.8306 69.3278C22.9372 74.7068 23.3935 80.1045 23.1366 85.4993C23.0376 87.5865 22.675 89.55 22.8223 91.6208C23.194 96.834 22.8321 102.479 22.9379 107.776C23.0414 112.966 23.2855 118.122 23.1321 123.31H20.848C20.6614 121.429 20.7831 119.528 20.7528 117.636C20.6501 111.209 20.6879 104.837 20.8443 98.4083C21.1147 87.2843 20.4876 76.1318 20.7528 64.989C21.0528 52.3973 20.4544 39.8168 20.7528 27.2235C20.9402 19.3028 20.7574 11.6558 20.6455 3.75527C20.61 1.24053 20.6803 -1.27873 20.6493 -3.79197H22.9334L22.9349 -3.79272Z" fill="#185B89"/>
<path d="M24.9205 -3.79277C24.9711 -1.34702 24.854 1.11073 24.9167 3.55723C24.9907 6.45973 25.2045 9.42223 25.4184 12.3285C25.5075 13.542 25.7871 14.8732 25.8196 16.0717C25.8845 18.5025 25.3677 21.4702 25.2204 23.9655C24.7361 32.1367 24.7452 40.6477 25.3194 48.8122C25.4524 50.7022 25.8936 52.872 25.8143 54.7282C25.7176 56.982 25.3564 59.3557 25.2204 61.6327C24.7316 69.828 24.7444 78.3915 25.3194 86.5777C25.4524 88.4715 25.8936 90.6285 25.8143 92.4937C25.7176 94.7467 25.3557 97.1182 25.2204 99.3982C24.7739 106.909 24.854 114.366 25.2234 121.875C25.2469 122.35 25.1985 122.834 25.2197 123.309H23.1343C23.2877 118.121 23.0429 112.964 22.9401 107.775C22.8344 102.478 23.1963 96.8332 22.8245 91.62C22.6772 89.5492 23.0391 87.5857 23.1389 85.4985C23.395 80.1037 22.9394 74.706 22.8329 69.327C22.7414 64.6942 23.157 59.8845 22.9401 55.317C22.9069 54.609 22.6742 53.712 22.6591 53.0527C22.6357 52.0455 22.9689 50.583 23.0346 49.5022C23.3957 43.5225 22.9507 37.6245 22.8329 31.6597C22.7316 26.5252 23.1721 21.2737 22.8253 16.1865C22.6825 14.0895 23.0384 12.1702 23.1396 10.065C23.3021 6.67573 23.1305 3.29023 23.0323 -0.0915182C22.9961 -1.32827 23.0512 -2.55977 22.9371 -3.79352H24.9235L24.9205 -3.79277Z" fill="#677C9E"/>
<path d="M56.9961 -3.79272C57.0414 -1.51047 56.9372 0.781526 56.9923 3.06453C57.0958 7.37478 57.7501 11.7315 57.8952 15.9728C57.9813 18.4988 57.4472 21.5708 57.2953 24.1628C56.7959 32.7158 56.8767 41.3565 57.494 49.8968C57.6126 51.534 57.9647 53.1788 57.8892 54.8265C57.7849 57.1185 57.4305 59.5155 57.2953 61.8293C56.7936 70.4138 56.8639 79.089 57.494 87.6623C57.6141 89.3018 57.9647 90.9413 57.8892 92.592C57.6761 97.2563 57.0973 101.92 56.9923 106.591C56.8669 112.166 57.0059 117.76 57.3935 123.308H55.2084C55.2198 121.317 55.3339 119.333 55.312 117.338C55.2719 113.739 54.9757 110.105 54.9062 106.501C54.8186 101.966 55.2281 97.269 55.0143 92.7863C54.9863 92.1938 54.7725 91.4528 54.7483 90.9015C54.7067 89.9348 55.046 88.5 55.108 87.465C55.4842 81.2183 55.0294 75.1395 54.9062 68.9325C54.8156 64.332 55.2304 59.5695 55.0135 55.0208C54.9856 54.4283 54.7717 53.6873 54.7475 53.136C54.7067 52.1708 55.0445 50.7338 55.1072 49.6995C55.488 43.4543 55.0286 37.3733 54.9055 31.167C54.8148 26.589 55.2069 21.8895 55.0127 17.3543C54.9863 16.7333 54.771 15.9518 54.7475 15.3705C54.7098 14.451 55.0475 13.0283 55.1072 12.0323C55.3611 7.82253 55.2296 3.71403 55.1042 -0.485225C55.0709 -1.59072 55.1608 -2.69397 55.009 -3.79272H56.9953H56.9961Z" fill="#677C9E"/>
<path d="M38.7237 -3.79272C38.7003 -3.25647 38.8861 -2.68872 38.9216 -2.16447C39.0916 0.342025 38.9692 2.89878 38.9216 5.42628C38.7584 14.061 39.5752 22.7168 39.0214 31.3598C38.9662 32.2245 38.7146 33.2933 38.7154 34.1213C38.7154 34.5623 38.8997 35.0708 38.9216 35.5028C39.1355 39.7178 38.7531 43.881 38.8196 48.1268C38.9292 55.1438 39.4777 62.0813 39.0214 69.1245C38.967 69.9653 38.7207 70.9725 38.7169 71.7863C38.7146 72.2858 38.8982 72.7943 38.9224 73.2683C39.0539 75.8415 38.9715 78.3675 38.9224 80.9573C38.7592 89.592 39.576 98.247 39.0214 106.89C38.9677 107.726 38.7146 108.749 38.7154 109.553C38.7161 111.099 39.0229 112.88 39.0274 114.479C39.035 117.422 38.6972 120.353 38.8242 123.308H36.7388C36.7607 122.471 36.7109 121.628 36.7351 120.79C37.066 109.289 36.5167 97.8608 36.7434 86.385C36.9927 73.7775 36.4948 61.2 36.7434 48.6195C37.0305 34.101 36.5348 19.638 36.8348 5.12703C36.8393 4.89378 36.9375 4.67778 36.9421 4.44528C36.9965 1.70178 36.893 -1.04997 36.9383 -3.79197H38.7259L38.7237 -3.79272Z" fill="#185B89"/>
<path d="M6.64885 -3.79272C6.61182 -3.18972 6.81885 -2.56347 6.85134 -1.97247C6.9896 0.546776 6.77502 3.02703 6.74405 5.52153C6.63525 14.1315 7.47542 22.6403 6.94578 31.2608C6.89214 32.1375 6.64885 33.1598 6.6428 34.0193C6.62769 36.204 6.88987 38.4533 6.84302 40.7235C6.6496 50.1555 7.53662 59.6498 6.94502 69.0263C6.89138 69.8768 6.65565 70.8533 6.64356 71.685C6.61031 73.8788 6.88987 76.2008 6.84302 78.4898C6.65036 87.894 7.52529 97.3418 6.94578 106.694C6.89138 107.57 6.65111 108.603 6.6428 109.452C6.6224 111.621 6.88307 113.901 6.84302 116.156C6.80071 118.541 6.70325 120.917 6.74782 123.309H4.66249C4.68742 122.341 4.63 121.365 4.65871 120.396C4.99418 108.8 4.43658 97.2765 4.66702 85.695C4.91787 73.0868 4.41694 60.5183 4.66702 47.9295C4.8476 38.8253 4.76676 29.8065 4.66702 20.7068C4.60582 15.1598 4.74862 9.77778 4.86574 4.24803C4.9224 1.57053 4.81511 -1.11597 4.86196 -3.79197H6.6496L6.64885 -3.79272Z" fill="#185B89"/>
<path d="M31.3752 -3.79272C31.4046 -3.12222 31.3366 -2.43822 31.3714 -1.76697C31.5965 2.58228 31.1251 6.97503 30.974 11.3393C30.6816 19.7723 30.9891 27.5993 31.3767 35.9933C31.6184 41.2448 31.0238 46.6013 30.875 51.8655C30.6642 59.331 31.0442 66.342 31.3767 73.7588C31.5376 77.3498 31.2067 80.7165 31.0737 84.3068C30.816 91.2533 30.6105 98.271 30.9747 105.219C31.1848 109.232 31.861 113.228 31.2724 117.241L31.0782 123.309H28.6952C28.7284 122.054 28.7171 120.766 28.7957 119.514C28.934 117.302 29.3782 115.128 29.2951 112.903C29.1417 108.81 29.1901 104.687 29.0881 100.586C28.9219 93.882 28.4111 87.174 28.8947 80.4668C29.0269 78.6293 29.3654 77.0265 29.2951 75.1373C29.1425 71.0453 29.1916 66.921 29.0881 62.82C28.9196 56.1173 28.4126 49.4093 28.8947 42.7013C29.0269 40.8653 29.3654 39.2633 29.2951 37.3718C29.1425 33.2798 29.1916 29.1555 29.0881 25.0545C28.9204 18.3825 28.4149 11.7113 28.8947 5.03478C28.974 3.92628 29.2332 2.78553 29.2951 1.68528C29.3722 0.318776 29.1599 -1.01022 29.0934 -2.36247C29.07 -2.83722 29.1077 -3.31722 29.0926 -3.79122H31.3767L31.3752 -3.79272Z" fill="#185B89"/>
<path d="M63.4508 -3.79272C63.3405 -2.36847 63.6654 -0.908974 63.6533 0.501026C63.6427 1.71903 63.3994 3.10053 63.3473 4.33803C63.0254 12.0195 62.6265 19.9358 62.9499 27.6165C63.0904 30.9465 63.6336 34.47 63.654 37.764C63.6623 39.1553 63.4055 40.6973 63.3473 42.1035C63.0315 49.7603 62.6318 57.6263 62.9499 65.2838C63.0896 68.6475 63.6336 72.2018 63.654 75.5303C63.6623 76.893 63.4039 78.396 63.3473 79.7708C63.0292 87.453 62.631 95.3618 62.9499 103.049C63.0896 106.414 63.6359 109.967 63.654 113.296C63.6654 115.399 63.3397 117.772 63.2483 119.903C63.1992 121.035 63.2347 122.178 63.1531 123.309H60.7701C60.8434 121.655 60.8381 119.982 60.9695 118.331C61.0678 117.095 61.4758 115.43 61.4743 114.287C61.472 112.677 61.274 111.037 61.2703 109.361C61.2635 106.263 61.2415 103.175 61.163 100.092C60.9763 92.8103 60.5019 85.8938 61.1683 78.5933C61.2234 77.985 61.4682 77.1833 61.4735 76.6193C61.4894 75.0098 61.274 73.2833 61.271 71.595C61.2642 68.5305 61.24 65.475 61.1637 62.4248C60.9809 55.1265 60.4837 48.1403 61.169 40.8278C61.2264 40.2173 61.4705 39.4373 61.4743 38.8538C61.4856 37.242 61.2763 35.5193 61.271 33.8295C61.2619 30.765 61.2408 27.7095 61.1637 24.6593C60.9899 17.7863 60.4505 10.917 61.0693 4.04703C61.1494 3.15978 61.4561 2.01903 61.4727 1.18803C61.4969 -0.0359742 61.2083 -1.50222 61.1637 -2.75322C61.1509 -3.11847 61.1932 -3.44022 61.2672 -3.79272H63.4523H63.4508Z" fill="#185B89"/>
<path d="M14.8912 -3.79272C14.8353 -3.61722 14.7968 -3.44172 14.7885 -3.25497C14.5014 2.76678 14.9313 8.81103 15.2879 14.7953C15.5546 19.2765 15.2577 23.628 15.0945 28.11C14.8837 33.8993 14.623 39.7388 14.7885 45.5633C14.9169 50.0843 15.575 54.534 15.3876 59.067C15.0544 67.1258 14.555 75.2265 14.7885 83.3288C14.9011 87.2303 15.6052 91.3988 15.4866 95.2545C15.3355 100.178 14.8897 105.107 14.7885 110.042C14.6978 114.46 14.8104 118.906 14.892 123.309H13.2041C13.0326 121.784 13.158 120.251 13.1089 118.72C12.9079 112.428 12.3783 106.202 12.8082 99.891C12.9011 98.5238 13.2268 97.077 13.3084 95.7533C13.4066 94.1468 13.1837 91.9575 13.1844 90.2273C13.1912 80.2065 12.0912 69.9203 13.0069 59.9565C13.0673 59.2995 13.2683 58.644 13.3084 57.9878C13.4073 56.379 13.1822 54.1943 13.1844 52.4618C13.1965 42.474 12.0881 32.2193 13.0069 22.29C13.1081 21.1958 13.3408 20.3925 13.3031 19.233C13.2517 17.6723 13.1656 16.305 13.1671 14.7128C13.1724 10.5833 13.0575 6.49353 12.9026 2.37453C12.8256 0.319525 12.7893 -1.73847 12.7084 -3.79197H14.8935L14.8912 -3.79272Z" fill="#185B89"/>
<path d="M46.9661 -3.79272C47.0265 -3.43797 46.8807 -3.10422 46.8626 -2.76147C46.5331 3.60152 47.1338 9.94652 47.4617 16.2743C47.7753 22.3268 46.9857 28.8158 46.8626 34.9058C46.7303 41.4458 47.1232 47.5575 47.4617 54.0405C47.7775 60.087 46.9835 66.585 46.8626 72.672C46.7334 79.1828 47.13 85.2563 47.4617 91.7078C47.7745 97.7918 46.9842 104.315 46.8626 110.438C46.7772 114.727 46.8943 119.034 46.9661 123.31H45.2782C45.1119 114.84 44.3519 106.392 45.0802 97.92C45.1792 96.7665 45.4149 95.871 45.3817 94.6605C45.3205 92.4143 45.2714 90.2985 45.2819 88.0628C45.3258 78.7313 44.2755 69.5033 45.0802 60.1545C45.1792 59.0018 45.4179 58.1048 45.3817 56.895C45.3144 54.645 45.2714 52.5368 45.2819 50.2973C45.3243 40.965 44.2771 31.74 45.0802 22.389C45.1792 21.2363 45.4179 20.3468 45.3817 19.1295C45.3363 17.6138 45.26 16.3223 45.2676 14.7848C45.288 10.5405 45.1369 6.31577 44.9752 2.07903C44.9004 0.122275 44.8974 -1.83822 44.781 -3.79197H46.9661V-3.79272Z" fill="#185B89"/>
<path d="M49.3498 -3.79277C49.7306 -2.09927 49.683 -0.345768 49.652 1.38823C49.5697 6.01048 48.7786 10.485 48.6509 15.0862C48.5247 19.6245 48.7061 24.1935 48.9516 28.6987C49.1435 32.2095 49.7185 35.6407 49.652 39.1537C49.5644 43.7752 48.7763 48.2505 48.6509 52.8517C48.527 57.3892 48.7046 61.9597 48.9516 66.4642C49.1458 70.0065 49.7193 73.3845 49.652 76.9192C49.5644 81.5115 48.7779 85.9522 48.6509 90.5182C48.5323 94.7955 48.6252 99.3817 48.8496 103.641C49.0438 107.317 49.7147 110.809 49.6528 114.488C49.6241 116.186 49.5939 118.221 49.448 119.905C49.3536 120.993 48.9463 122.181 48.9531 123.309H46.9668C46.895 119.034 46.7779 114.726 46.8633 110.437C46.9849 104.314 47.7752 97.791 47.4624 91.707C47.1307 85.2555 46.7341 79.182 46.8633 72.6712C46.9842 66.585 47.7775 60.0862 47.4624 54.0397C47.1239 47.5575 46.7311 41.4457 46.8633 34.905C46.9864 28.815 47.776 22.3267 47.4624 16.2735C47.1345 9.94573 46.5339 3.60073 46.8633 -2.76227C46.8814 -3.10502 47.0272 -3.43877 46.9668 -3.79352H49.3498V-3.79277Z" fill="#677C9E"/>
<path d="M17.2742 -3.79277C17.6165 -2.18477 17.6052 -0.549768 17.5765 1.09198C17.5296 3.74023 17.2682 6.18448 16.9894 8.79148C16.3215 15.027 16.4363 22.0425 16.7741 28.3065C16.9637 31.8165 17.6339 35.2477 17.5765 38.7585C17.5047 43.1287 16.8436 47.4075 16.6826 51.774C16.5081 56.5177 16.5157 61.3357 16.7741 66.072C16.9652 69.5805 17.6384 73.0132 17.5765 76.524C17.5236 79.536 17.1919 82.236 16.8776 85.1977C16.2626 90.9975 16.4552 97.9957 16.7733 103.837C16.963 107.312 17.6309 110.716 17.5765 114.192C17.5349 116.854 17.3302 119.364 16.9886 121.99C16.9327 122.421 16.9116 122.875 16.8768 123.308H14.8905C14.8089 118.905 14.6963 114.46 14.787 110.041C14.8882 105.107 15.334 100.177 15.4851 95.2537C15.6037 91.398 14.8995 87.2287 14.787 83.328C14.5535 75.2257 15.0529 67.125 15.3861 59.0662C15.5735 54.5332 14.9154 50.0835 14.787 45.5625C14.6215 39.738 14.8822 33.8992 15.093 28.1092C15.2562 23.6272 15.5531 19.2757 15.2864 14.7945C14.9305 8.81023 14.4998 2.76598 14.787 -3.25577C14.796 -3.44252 14.8346 -3.61727 14.8897 -3.79352H17.2727L17.2742 -3.79277Z" fill="#677C9E"/>
<path d="M2.77587 -3.79277C2.85747 1.38073 2.66858 6.56773 2.77209 11.7412C2.85218 15.7635 3.508 20.3272 3.27755 24.2647C3.22844 25.11 2.94662 25.935 2.87711 26.727C2.75773 28.089 2.90809 29.6715 2.87938 31.068C2.71391 39.1267 2.6512 47.2672 2.9708 55.3245C3.0592 57.561 3.40902 59.7772 3.27755 62.0302C3.22995 62.8522 2.94813 63.6405 2.87635 64.3927C2.74791 65.7352 2.90809 67.3492 2.87938 68.7345C2.71315 76.7932 2.65573 84.9315 2.9708 92.991C3.05844 95.226 3.406 97.446 3.27755 99.6967C3.22769 100.567 2.93907 101.434 2.87182 102.252C2.73884 103.864 2.79853 105.658 2.77133 107.28C2.68142 112.619 2.8484 117.969 2.77587 123.308H0.78951C0.706399 122.209 0.732844 121.102 0.69431 120.001C0.515999 114.913 0.304444 109.609 0.790266 104.524C0.91191 103.252 1.29422 101.89 1.38867 100.681C1.5768 98.2785 1.64631 94.587 1.48915 92.193C1.31311 89.5132 0.809155 86.7847 0.685999 84.0172C0.439688 78.4867 0.274977 72.351 0.790266 66.8565C0.912666 65.5485 1.29195 64.1602 1.38942 62.9152C1.57529 60.5362 1.65613 56.7907 1.48991 54.4275C1.30253 51.7702 0.810666 49.0987 0.686755 46.3507C0.392844 39.8422 0.299155 33.0127 1.11667 26.556C1.88884 20.4592 1.2164 14.6572 0.686755 8.58523C0.657288 4.45273 0.330888 0.333732 0.591555 -3.79352H2.77662L2.77587 -3.79277Z" fill="#185B89"/>
<path d="M34.8515 -3.79275C34.9248 1.15125 34.7548 6.10725 34.8477 11.0513C34.9278 15.3315 35.5972 20.1705 35.3532 24.3638C35.3041 25.212 35.0139 26.0325 34.9474 26.8207C34.8046 28.5157 34.9829 30.5115 34.955 32.2515C34.8326 39.8362 34.7601 47.4443 35.0464 55.029C35.1356 57.3953 35.4975 59.7473 35.3532 62.1293C35.3041 62.9355 35.0207 63.7425 34.952 64.4918C34.7978 66.1718 34.9837 68.1885 34.955 69.918C34.8288 77.5013 34.7623 85.1115 35.0464 92.6955C35.1386 95.1487 35.5307 97.6192 35.3471 100.085C35.2935 100.81 35.0064 101.559 34.9474 102.252C34.7903 104.111 34.8734 106.541 34.8469 108.463C34.7789 113.409 34.9074 118.362 34.8515 123.308H32.8651C32.7049 119.414 32.6007 115.523 32.5629 111.619C32.5153 105.101 34.0264 98.646 33.5648 92.0948C33.4205 90.0495 32.9951 87.9157 32.8659 85.7872C32.4647 79.1617 32.3166 71.6753 33.0774 65.0955C33.1522 64.449 33.4031 63.7223 33.4597 63.1088C33.6796 60.7118 33.7333 56.727 33.5648 54.3293C33.4235 52.3193 32.9943 50.2118 32.8659 48.1208C32.4609 41.499 32.3037 33.897 33.0774 27.33C33.4741 23.9662 33.8043 20.067 33.564 16.662C33.5058 15.84 33.2452 15.0255 33.1628 14.2005C32.7525 10.0815 32.5924 5.523 32.5621 1.38675C32.5493 -0.345 32.6301 -2.06625 32.6657 -3.79425H34.8507L34.8515 -3.79275Z" fill="#185B89"/>
<path d="M61.2664 -3.79272C61.1924 -3.44022 61.1501 -3.11847 61.1629 -2.75322C61.2067 -1.50222 61.4961 -0.0359742 61.4719 1.18803C61.4553 2.01903 61.1486 3.15978 61.0685 4.04703C60.4504 10.917 60.9899 17.7863 61.1629 24.6593C61.24 27.7095 61.2611 30.765 61.2702 33.8295C61.2755 35.5193 61.4848 37.242 61.4735 38.8538C61.4697 39.4365 61.2256 40.2165 61.1682 40.8278C60.4829 48.141 60.9801 55.1273 61.1629 62.4248C61.2392 65.475 61.2642 68.5305 61.2702 71.595C61.274 73.2833 61.4893 75.0098 61.4727 76.6193C61.4674 77.1833 61.2226 77.9843 61.1675 78.5933C60.5011 85.8945 60.9763 92.8103 61.1622 100.092C61.2407 103.175 61.2627 106.264 61.2695 109.361C61.2732 111.038 61.4712 112.677 61.4735 114.287C61.475 115.43 61.067 117.094 60.9687 118.331C60.8373 119.982 60.8426 121.655 60.7693 123.309H58.9816C58.9008 118.837 58.8003 114.332 58.8781 109.846C58.9416 106.202 58.9401 101.918 59.5543 98.3888C60.1316 95.0715 59.1327 89.655 58.9779 86.0903C58.7663 81.2145 58.8902 76.2728 58.9862 71.3985C59.0564 67.8113 58.9446 64.1273 59.5543 60.6233C60.1301 57.3173 59.1335 51.9698 58.9779 48.4238C58.6462 40.8953 58.7436 32.5755 59.1819 25.0515C59.2831 23.3085 59.7289 21.9863 59.682 20.1158C59.5778 15.9525 58.9695 11.7165 58.8789 7.50303C58.7973 3.74253 58.9484 -0.0307245 58.8827 -3.79122H61.2657L61.2664 -3.79272Z" fill="#677C9E"/>
<path d="M29.0911 -3.79275C29.1062 -3.31875 29.0692 -2.83875 29.0919 -2.364C29.1584 -1.011 29.3707 0.318 29.2936 1.68375C29.2316 2.784 28.9725 3.92475 28.8932 5.03325C28.4134 11.7105 28.9196 18.381 29.0866 25.053C29.1893 29.154 29.141 33.279 29.2936 37.3703C29.3639 39.2618 29.0254 40.8638 28.8932 42.6998C28.4111 49.407 28.9188 56.115 29.0866 62.8185C29.1893 66.9195 29.141 71.0445 29.2936 75.1358C29.3639 77.0258 29.0254 78.6285 28.8932 80.4652C28.4104 87.1725 28.9203 93.8805 29.0866 100.584C29.1886 104.685 29.1402 108.809 29.2936 112.901C29.3767 115.127 28.9324 117.302 28.7942 119.513C28.7156 120.764 28.7269 122.054 28.6937 123.308H26.906C26.8146 118.642 26.7179 113.932 26.8025 109.252C26.869 105.577 26.974 101.818 27.4908 98.202C27.914 95.247 27.1886 91.5563 27.0058 88.548C26.6484 82.6688 26.7904 76.686 26.9098 70.8045C26.9824 67.2503 26.965 63.9398 27.4908 60.4358C27.747 58.7303 27.5188 56.5703 27.4017 54.8273C26.733 44.8808 26.4875 34.8165 27.1055 24.8513C27.2022 23.2965 27.6283 22.071 27.6057 20.4082C27.5505 16.3387 26.8977 12.1215 26.8025 7.99275C26.7119 4.068 26.8788 0.12975 26.8063 -3.79425H29.0903L29.0911 -3.79275Z" fill="#677C9E"/>
<path d="M66.9263 -3.79275C66.9959 1.02 66.8349 5.844 66.9226 10.6567C67.0027 15.0795 67.6963 20.136 67.428 24.462C67.3789 25.2488 67.0956 26.004 67.0268 26.7263C66.85 28.5713 67.0586 30.8385 67.0299 32.7443C66.9188 40.104 66.8538 47.4705 67.1213 54.8318C67.2127 57.351 67.6109 59.8853 67.422 62.4188C67.3683 63.1433 67.0812 63.8925 67.0223 64.5855C66.8689 66.4013 67.0578 68.5463 67.0299 70.4108C66.9195 77.769 66.8531 85.137 67.1213 92.4983C67.2135 95.022 67.598 97.5472 67.422 100.086C67.3691 100.849 67.0835 101.623 67.0223 102.352C66.8553 104.329 66.9483 106.913 66.9218 108.957C66.8606 113.739 66.9777 118.528 66.9263 123.309H64.94C64.8909 121.946 64.8856 120.578 64.8448 119.213C64.736 115.597 64.6174 111.896 64.7375 108.267C64.8569 104.655 65.5082 101.128 65.6396 97.527C65.7069 95.6902 65.8315 93.5183 65.6238 91.7168C64.8131 84.6953 64.501 77.598 64.7375 70.5008C64.8584 66.8813 65.5097 63.39 65.6396 59.7608C65.7054 57.9233 65.8323 55.7513 65.6253 53.949C64.8214 46.9523 64.5086 39.9068 64.7375 32.8335C64.8546 29.2215 65.5074 25.6927 65.6396 22.0935C65.7076 20.2335 65.8331 18.0075 65.6253 16.1835C65.2075 12.516 64.8289 9.04275 64.7375 5.331C64.6627 2.2935 64.8017 -0.75675 64.7413 -3.79425H66.9263V-3.79275Z" fill="#185B89"/>
<path d="M51.0378 -3.79277C51.1103 -2.73077 51.0786 -1.65077 51.1383 -0.588768C51.269 1.75273 51.575 3.94273 51.3241 6.30298C50.6698 12.4597 50.7847 19.3882 50.8353 25.6447C50.8753 30.6487 51.2622 35.6265 51.439 40.6245C51.5168 42.8197 51.1458 44.958 51.0416 47.1405C50.6796 54.7635 50.8323 62.6782 51.0416 70.3042C51.1405 73.9147 51.6913 78.2452 51.3234 81.7342C50.6759 87.8707 50.79 94.7437 50.8345 100.979C50.8708 106.051 51.2652 111.092 51.439 116.155C51.5009 117.967 51.1859 119.205 51.0385 120.893C50.969 121.693 51.1466 122.521 50.938 123.308H48.9517C48.9449 122.18 49.3521 120.992 49.4466 119.905C49.5924 118.221 49.6234 116.186 49.6513 114.487C49.7125 110.808 49.0416 107.316 48.8482 103.64C48.6238 99.381 48.5308 94.7947 48.6495 90.5175C48.7764 85.9507 49.5629 81.51 49.6506 76.9185C49.7186 73.3837 49.1444 70.0057 48.9502 66.4635C48.7031 61.959 48.5256 57.3885 48.6495 52.851C48.7749 48.2497 49.5629 43.7752 49.6506 39.153C49.7171 35.6392 49.1421 32.2087 48.9502 28.698C48.7039 24.1927 48.5233 19.6237 48.6495 15.0855C48.7772 10.4842 49.5682 6.00973 49.6506 1.38748C49.6816 -0.346518 49.7292 -2.10002 49.3484 -3.79352H51.0363L51.0378 -3.79277Z" fill="#185B89"/>
<path d="M44.7818 -3.79277C44.8981 -1.83902 44.9019 0.121482 44.9759 2.07823C45.1376 6.31498 45.2887 10.5397 45.2683 14.784C45.2608 16.3207 45.3371 17.613 45.3824 19.1287C45.4187 20.346 45.1799 21.2355 45.081 22.3882C44.2786 31.7392 45.325 40.9642 45.2827 50.2965C45.2729 52.536 45.3152 54.6442 45.3824 56.8942C45.4187 58.104 45.1799 59.001 45.081 60.1537C44.2763 69.5025 45.3265 78.7305 45.2827 88.062C45.2721 90.2977 45.3212 92.4135 45.3824 94.6597C45.4157 95.8702 45.1799 96.7657 45.081 97.9192C44.3519 106.391 45.1127 114.839 45.2789 123.309H42.9949C42.9631 123.022 43.081 122.756 43.0984 122.474C43.2087 120.648 43.0697 119.23 43.4663 117.416C44.095 114.539 43.1641 109.668 42.9964 106.594C42.6571 100.391 42.8211 94.1512 42.9994 87.9622C43.0787 85.2112 42.9631 82.398 43.4467 79.7295C44.0375 76.47 43.1755 72.1867 42.9911 68.8327C42.6511 62.6317 42.8188 56.3835 42.9994 50.1967C43.0803 47.4202 42.9563 44.5837 43.4626 41.8807C44.0466 38.7622 43.1724 34.398 42.9964 31.161C42.5574 23.079 42.812 14.6865 43.1981 6.61348C43.3001 4.47823 43.7603 2.48098 43.5955 0.294732L43.2933 -3.79352H44.7825L44.7818 -3.79277Z" fill="#677C9E"/>
<path d="M18.9622 -3.79272C19.0128 -1.43997 19.1578 0.909775 19.3634 3.25353C18.6494 11.4173 18.7317 19.7003 18.867 27.9045C18.938 32.2193 18.9055 36.5333 19.3581 40.827C18.666 49.0605 18.7302 57.3975 18.867 65.67C18.938 69.9848 18.9078 74.298 19.3581 78.5925C18.7755 86.5613 18.6471 94.6335 18.7582 102.656C18.8216 107.227 19.2122 111.796 19.3581 116.358C19.4351 118.769 18.8322 120.922 18.8624 123.309H16.8761C16.9108 122.875 16.932 122.422 16.9879 121.991C17.3294 119.365 17.5342 116.855 17.5757 114.193C17.6301 110.717 16.9614 107.313 16.7726 103.838C16.4545 97.9965 16.2618 90.9983 16.8768 85.1985C17.1911 82.2368 17.5228 79.5368 17.5757 76.5248C17.6377 73.014 16.9645 69.5813 16.7733 66.0728C16.5149 61.3365 16.5074 56.5193 16.6819 51.7748C16.8428 47.4083 17.5039 43.1295 17.5757 38.7593C17.6331 35.2485 16.9622 31.8173 16.7733 28.3073C16.4356 22.0433 16.3207 15.027 16.9886 8.79228C17.2682 6.18528 17.5296 3.74028 17.5757 1.09278C17.6044 -0.549724 17.6158 -2.18397 17.2735 -3.79197H18.9614L18.9622 -3.79272Z" fill="#185B89"/>
<path d="M12.7062 -3.79272C12.787 -1.73922 12.8233 0.318776 12.9003 2.37378C13.0552 6.49278 13.1701 10.5825 13.1648 14.712C13.1625 16.3043 13.2494 17.6715 13.3008 19.2323C13.3386 20.3918 13.1059 21.1943 13.0046 22.2893C12.0859 32.2185 13.195 42.4733 13.1822 52.461C13.1799 54.1935 13.4043 56.379 13.3061 57.987C13.266 58.6433 13.0651 59.2988 13.0046 59.9558C12.0889 69.9195 13.189 80.2058 13.1822 90.2265C13.1807 91.9568 13.4043 94.146 13.3061 95.7525C13.2252 97.0763 12.8988 98.523 12.8059 99.8903C12.376 106.201 12.9056 112.427 13.1066 118.719C13.1557 120.25 13.0303 121.784 13.2018 123.308H10.9178L11.1135 118.129C12.0556 114.521 11.1225 110.494 10.9185 106.791C10.5105 99.3908 10.7183 91.8068 11.0213 84.4125C11.0938 82.6358 11.0379 81.3975 11.3915 79.6523C11.9831 76.7303 11.0923 72.1973 10.9193 69.1238C10.5015 61.7078 10.7123 54.0578 11.022 46.647C11.0931 44.9378 11.0258 43.6425 11.3719 41.9655C11.9861 38.9895 11.0961 34.4813 10.92 31.3583C10.5022 23.9438 10.7123 16.2923 11.0228 8.88153C11.0946 7.15878 11.0621 5.90103 11.3711 4.19853C11.7882 1.90053 11.3862 -0.547474 11.2185 -2.85672C11.1958 -3.16722 11.2306 -3.48297 11.2177 -3.79272H12.7069H12.7062Z" fill="#677C9E"/>
<path d="M64.742 -3.79272C64.8024 -0.755224 64.6634 2.29503 64.7382 5.33253C64.8296 9.04503 65.2082 12.5183 65.626 16.185C65.8338 18.009 65.7084 20.235 65.6404 22.095C65.5089 25.6943 64.8553 29.2223 64.7382 32.835C64.5093 39.9083 64.8221 46.9538 65.626 53.9505C65.833 55.7528 65.7061 57.9248 65.6404 59.7623C65.5104 63.3915 64.8591 66.8828 64.7382 70.5023C64.5017 77.5995 64.813 84.6968 65.6245 91.7183C65.8323 93.519 65.7076 95.6918 65.6404 97.5285C65.5089 101.129 64.8576 104.657 64.7382 108.269C64.6188 111.898 64.7375 115.598 64.8455 119.214C64.8863 120.579 64.8916 121.947 64.9407 123.311H63.1531C63.2347 122.18 63.1991 121.037 63.2483 119.905C63.3404 117.774 63.6661 115.401 63.654 113.297C63.6359 109.969 63.0896 106.415 62.9498 103.051C62.6302 95.3625 63.0284 87.4538 63.3472 79.7723C63.4039 78.3975 63.6623 76.8945 63.654 75.5318C63.6336 72.2033 63.0896 68.6498 62.9498 65.2853C62.6317 57.6278 63.0314 49.7618 63.3472 42.105C63.4054 40.6988 63.6623 39.1575 63.654 37.7655C63.6336 34.4715 63.0903 30.9473 62.9498 27.618C62.6264 19.9365 63.0246 12.0203 63.3472 4.33953C63.3994 3.10203 63.6427 1.72053 63.6532 0.502526C63.6653 -0.908224 63.3404 -2.36697 63.4507 -3.79122H64.742V-3.79272Z" fill="#677C9E"/>
<path d="M0.590814 -3.79297C0.330148 0.334281 0.656548 4.45328 0.686014 8.58578C1.21641 14.6578 1.88886 20.4598 1.11593 26.5565C0.297659 33.014 0.392103 39.8428 0.686014 46.3513C0.809925 49.1 1.30179 51.7715 1.48917 54.428C1.65539 56.7913 1.5753 60.5368 1.38868 62.9158C1.29121 64.1608 0.912681 65.549 0.789525 66.857C0.274236 72.3515 0.438948 78.4873 0.685259 84.0178C0.808414 86.7853 1.31237 89.5138 1.48841 92.1935C1.64557 94.5868 1.57606 98.279 1.38793 100.682C1.29348 101.89 0.91117 103.253 0.789525 104.525C0.303703 109.609 0.515259 114.914 0.69357 120.001C0.732103 121.103 0.705659 122.209 0.78877 123.309H-0.998119C-0.976208 119.702 -0.619586 116.11 -0.596919 112.507C-1.67736 101.414 -1.24367 90.296 -0.803941 79.1788C-0.583319 73.6108 -1.16359 68.7043 -1.30034 63.2128C-1.50056 55.1893 -0.880252 47.2423 -0.596919 39.2518C-0.488119 36.1805 -0.933897 33.134 -1.09634 30.0763C-1.64336 19.8065 -0.951275 9.56603 -0.596919 -0.690969L-0.799408 -3.79297H0.590814Z" fill="#677C9E"/>
<path d="M32.6664 -3.79272C32.6309 -2.06472 32.5501 -0.344224 32.5629 1.38828C32.5931 5.52453 32.7533 10.083 33.1636 14.202C33.2459 15.027 33.5066 15.8415 33.5648 16.6635C33.805 20.0685 33.4741 23.9678 33.0782 27.3315C32.3045 33.8985 32.4609 41.5005 32.8666 48.1223C32.9943 50.2133 33.4235 52.3215 33.5655 54.3308C33.7348 56.7285 33.6811 60.7125 33.4605 63.1103C33.4046 63.7238 33.153 64.4505 33.0782 65.097C32.3174 71.6768 32.4654 79.1633 32.8666 85.7888C32.9958 87.9173 33.4212 90.051 33.5655 92.0963C34.0272 98.6475 32.5161 105.102 32.5637 111.62C32.6014 115.525 32.7057 119.416 32.8659 123.309H31.0782L31.2724 117.241C31.8602 113.228 31.1848 109.232 30.9747 105.219C30.6106 98.271 30.8161 91.2533 31.0737 84.3068C31.2067 80.7165 31.5376 77.3498 31.3767 73.7588C31.0442 66.342 30.6642 59.331 30.875 51.8655C31.0239 46.6013 31.6185 41.2448 31.3767 35.9933C30.9898 27.5985 30.6823 19.7715 30.974 11.3393C31.1251 6.97503 31.5966 2.58228 31.3714 -1.76697C31.3366 -2.43747 31.4054 -3.12147 31.3752 -3.79272H32.6664Z" fill="#677C9E"/>
<path d="M69.0117 -3.79272C68.9694 -0.983974 69.0668 1.83303 69.0154 4.64178C69.0117 4.85178 68.9165 5.04453 68.9127 5.23053C68.6528 18.6713 69.0449 32.1015 68.8084 45.555C68.5863 58.149 69.0306 70.7183 68.8084 83.3205C68.5863 95.925 69.2217 108.476 68.8084 121.086C68.7842 121.825 68.8341 122.57 68.8122 123.309H66.9256C66.977 118.528 66.8591 113.739 66.921 108.957C66.9475 106.913 66.8546 104.33 67.0215 102.352C67.0827 101.624 67.3683 100.85 67.4212 100.086C67.5973 97.5473 67.2119 95.022 67.1205 92.4983C66.8523 85.137 66.9195 77.769 67.0291 70.4108C67.057 68.5463 66.8682 66.4013 67.0215 64.5855C67.0797 63.8925 67.3668 63.1425 67.4212 62.4188C67.6101 59.8853 67.2119 57.351 67.1205 54.8318C66.8538 47.4705 66.918 40.104 67.0291 32.7443C67.0578 30.8385 66.8493 28.5713 67.0261 26.7263C67.0948 26.004 67.3781 25.2488 67.4273 24.462C67.6955 20.136 67.0019 15.0795 66.9218 10.6568C66.8341 5.84403 66.9958 1.02003 66.9256 -3.79272H69.0109H69.0117Z" fill="#677C9E"/>
<path d="M43.2918 -3.79272L43.594 0.295525C43.7587 2.48177 43.2986 4.47903 43.1966 6.61428C42.8105 14.6873 42.5559 23.0798 42.9948 31.1618C43.1709 34.3988 44.0443 38.763 43.461 41.8815C42.9548 44.5845 43.0795 47.421 42.9979 50.1975C42.8173 56.385 42.6495 62.6333 42.9895 68.8335C43.1739 72.1875 44.0368 76.4708 43.4452 79.7303C42.9608 82.3988 43.0772 85.212 42.9979 87.963C42.8196 94.1513 42.6556 100.392 42.9948 106.595C43.1626 109.668 44.0934 114.54 43.4648 117.417C43.0681 119.231 43.2079 120.649 43.0968 122.475C43.0795 122.757 42.9616 123.023 42.9933 123.31H41.1067C41.1271 121.388 41.1876 119.465 41.3062 117.542C41.4392 115.392 41.9144 112.814 41.9091 110.738C41.9053 109.304 41.5124 107.491 41.4052 106.004C40.704 96.2835 40.8453 86.727 41.5049 77.0153C41.5903 75.7523 41.9152 74.1893 41.9091 72.9713C41.9046 71.9123 41.5872 70.5285 41.5041 69.4208C40.8211 60.315 40.7395 51.2085 41.3062 42.1088C41.4414 39.939 41.925 37.2968 41.9099 35.2058C41.9016 34.1408 41.5888 32.766 41.5049 31.6553C40.8173 22.5525 40.741 13.4415 41.3069 4.34327C41.4414 2.17727 41.8691 -0.252725 41.9053 -2.36772C41.9129 -2.81847 41.7149 -3.31122 41.8026 -3.79272H43.2918Z" fill="#185B89"/>
<path d="M11.2169 -3.79272C11.2298 -3.48297 11.195 -3.16722 11.2177 -2.85672C11.3854 -0.547474 11.7874 1.90053 11.3703 4.19853C11.0613 5.90103 11.0938 7.15878 11.022 8.88153C10.7122 16.2923 10.5022 23.9438 10.9192 31.3583C11.0953 34.4813 11.9853 38.9895 11.3711 41.9655C11.025 43.6425 11.093 44.9378 11.0212 46.647C10.7122 54.0585 10.5014 61.7078 10.9185 69.1238C11.0915 72.198 11.9823 76.7303 11.3907 79.6523C11.0371 81.3975 11.0938 82.6358 11.0205 84.4125C10.7183 91.806 10.5097 99.39 10.9177 106.791C11.1217 110.494 12.0548 114.521 11.1127 118.129L10.917 123.308H8.93061C9.11497 121.333 9.10288 119.333 9.22981 117.344C9.36128 115.285 9.84257 112.709 9.82443 110.736C9.80403 108.504 9.27288 105.76 9.13008 103.439C8.5619 94.1678 8.8815 84.8978 9.52674 75.6338C9.58416 74.814 9.83123 73.7558 9.82368 72.9705C9.80781 71.2073 9.35901 68.9873 9.22905 67.152C8.60194 58.293 8.76061 49.2945 9.32803 40.4325C9.4323 38.7998 9.83803 36.7748 9.82368 35.205C9.80781 33.447 9.35825 31.221 9.22905 29.3865C8.64123 21.0623 8.71377 12.4748 9.22905 4.14603C9.35977 2.03028 9.80177 -0.404974 9.82368 -2.46147C9.82745 -2.83722 9.62421 -3.36072 9.7247 -3.79272H11.2139H11.2169Z" fill="#185B89"/>
<path d="M36.9368 -3.79272C36.8922 -1.04997 36.995 1.70178 36.9406 4.44453C36.9361 4.67778 36.8378 4.89302 36.8333 5.12627C36.5341 19.638 37.029 34.1003 36.7419 48.6188C36.4933 61.1993 36.9912 73.7775 36.7419 86.3843C36.5152 97.8608 37.0653 109.288 36.7336 120.789C36.7094 121.627 36.76 122.471 36.7374 123.308H34.8507C34.9066 118.362 34.7782 113.409 34.8462 108.463C34.8726 106.541 34.7895 104.111 34.9467 102.252C35.0049 101.559 35.292 100.809 35.3464 100.085C35.53 97.6185 35.1378 95.1488 35.0457 92.6955C34.7616 85.1108 34.8281 77.5005 34.9542 69.918C34.983 68.1885 34.7971 66.171 34.9512 64.4918C35.02 63.7418 35.3033 62.9355 35.3524 62.1293C35.4967 59.7473 35.1348 57.3953 35.0457 55.029C34.7593 47.4443 34.8326 39.8363 34.9542 32.2515C34.9822 30.5115 34.8039 28.5158 34.9467 26.8208C35.0132 26.0325 35.3026 25.212 35.3524 24.3638C35.5965 20.1705 34.927 15.3315 34.847 11.0513C34.7548 6.10728 34.9248 1.15127 34.8507 -3.79272H36.9361H36.9368Z" fill="#677C9E"/>
<path d="M4.86124 -3.79272C4.8144 -1.11597 4.92169 1.57053 4.86502 4.24728C4.74866 9.77703 4.60511 15.159 4.66631 20.706C4.76604 29.8058 4.84689 38.8245 4.66631 47.9288C4.41622 60.5175 4.91715 73.0868 4.66631 85.6943C4.43586 97.275 4.99346 108.799 4.658 120.395C4.63004 121.364 4.68671 122.34 4.66177 123.308H2.77515C2.84769 117.97 2.68071 112.619 2.77062 107.28C2.79782 105.658 2.73813 103.865 2.87111 102.252C2.93835 101.435 3.22697 100.567 3.27684 99.6968C3.40529 97.446 3.05773 95.226 2.97009 92.991C2.65502 84.9315 2.71244 76.7933 2.87866 68.7345C2.90737 67.3493 2.7472 65.7353 2.87564 64.3928C2.94742 63.6398 3.22924 62.8523 3.27684 62.0303C3.40831 59.7773 3.05849 57.561 2.97009 55.3245C2.65049 47.2665 2.7132 39.126 2.87866 31.068C2.90737 29.6715 2.75702 28.089 2.8764 26.727C2.94591 25.9358 3.22773 25.11 3.27684 24.2648C3.50729 20.3273 2.85146 15.7635 2.77137 11.7413C2.66862 6.56778 2.85675 1.38078 2.77515 -3.79272H4.86049H4.86124Z" fill="#677C9E"/>
<path d="M26.8071 -3.79272C26.8789 0.132026 26.7127 4.07028 26.8033 7.99428C26.8985 12.123 27.5513 16.3395 27.6065 20.4098C27.6291 22.0725 27.203 23.298 27.1063 24.8528C26.4883 34.818 26.7338 44.8815 27.4025 54.8288C27.5196 56.5725 27.7478 58.7325 27.4916 60.4373C26.9658 63.9413 26.9831 67.2518 26.9106 70.806C26.7912 76.6875 26.6492 82.6703 27.0066 88.5495C27.1894 91.5578 27.9147 95.2478 27.4916 98.2035C26.9741 101.819 26.8698 105.578 26.8033 109.254C26.7187 113.935 26.8154 118.644 26.9068 123.309H25.2189C25.1985 122.834 25.2461 122.351 25.2227 121.875C24.8532 114.365 24.7731 106.909 25.2197 99.3983C25.3549 97.1183 25.7168 94.7475 25.8135 92.4938C25.8936 90.6285 25.4524 88.4715 25.3187 86.5778C24.7437 78.3915 24.7301 69.828 25.2197 61.6328C25.3557 59.3558 25.7168 56.9828 25.8135 54.7283C25.8929 52.8713 25.4516 50.7015 25.3187 48.8123C24.7444 40.6478 24.7354 32.1375 25.2197 23.9655C25.3678 21.4695 25.8846 18.5018 25.8188 16.0718C25.7871 14.8733 25.5068 13.542 25.4176 12.3285C25.2046 9.42228 24.9907 6.45978 24.9159 3.55728C24.8532 1.11078 24.9711 -1.34697 24.9197 -3.79272H26.8063H26.8071Z" fill="#185B89"/>
<path d="M58.8827 -3.79277C58.9477 -0.0322678 58.7973 3.74098 58.8789 7.50148C58.9703 11.715 59.5778 15.951 59.6821 20.1142C59.7289 21.9855 59.2831 23.307 59.1819 25.05C58.7437 32.574 58.647 40.8937 58.9779 48.4222C59.1343 51.9682 60.1301 57.3157 59.5544 60.6217C58.9447 64.1257 59.0565 67.8097 58.9862 71.397C58.891 76.272 58.7663 81.213 58.9779 86.0887C59.1328 89.6535 60.1316 95.07 59.5544 98.3872C58.9401 101.917 58.9416 106.2 58.8782 109.844C58.8003 114.331 58.9008 118.835 58.9817 123.307H57.3927C57.0051 117.759 56.8661 112.165 56.9915 106.59C57.0966 101.918 57.6753 97.2555 57.8884 92.5912C57.9639 90.9397 57.6134 89.301 57.4932 87.6615C56.8631 79.089 56.7936 70.4137 57.2945 61.8285C57.4298 59.5147 57.7841 57.117 57.8884 54.8257C57.9632 53.178 57.6111 51.5332 57.4932 49.896C56.8759 41.3557 56.7951 32.715 57.2945 24.162C57.4456 21.57 57.9806 18.498 57.8944 15.972C57.7494 11.7307 57.0958 7.37398 56.9915 3.06373C56.9364 0.781482 57.0407 -1.51127 56.9953 -3.79352H58.8819L58.8827 -3.79277Z" fill="#185B89"/>
<path d="M20.6508 -3.79272C20.6818 -1.27947 20.6108 1.24053 20.647 3.75453C20.7589 11.655 20.9425 19.302 20.7543 27.2228C20.4559 39.816 21.0543 52.3965 20.7543 64.9883C20.4891 76.131 21.1155 87.2828 20.8458 98.4075C20.6894 104.837 20.6523 111.209 20.7543 117.635C20.7846 119.528 20.6629 121.428 20.8495 123.309H18.8632C18.833 120.922 19.4351 118.769 19.3588 116.358C19.2138 111.796 18.8231 107.227 18.7589 102.656C18.6471 94.6328 18.7755 86.5605 19.3588 78.5925C18.9085 74.298 18.9387 69.9855 18.8677 65.67C18.731 57.3975 18.6667 49.0598 19.3588 40.827C18.9055 36.5333 18.9387 32.2193 18.8677 27.9045C18.7325 19.7003 18.6501 11.4173 19.3641 3.25353C19.1586 0.909775 19.0135 -1.43997 18.9629 -3.79272H20.6508Z" fill="#677C9E"/>
<path d="M52.7256 -3.79272C52.7528 -1.57497 52.6909 0.648775 52.7219 2.86728C52.839 11.2605 53.015 19.4003 52.8292 27.8145C52.5519 40.3733 53.1125 52.9185 52.8292 65.4818C52.5791 76.5713 53.1646 87.63 52.9206 98.7038C52.7498 106.432 52.4748 114.373 52.9236 122.078C52.9478 122.487 52.9092 122.902 52.9244 123.31H50.938C51.1458 122.523 50.9682 121.695 51.0385 120.895C51.1858 119.207 51.5009 117.968 51.4389 116.157C51.2652 111.093 50.87 106.052 50.8345 100.981C50.7899 94.7453 50.6758 87.8723 51.3233 81.7358C51.6913 78.2468 51.1405 73.9155 51.0415 70.3058C50.8322 62.6798 50.6796 54.765 51.0415 47.142C51.145 44.9595 51.5168 42.8213 51.4389 40.626C51.2621 35.628 50.8753 30.6503 50.8352 25.6463C50.7846 19.389 50.6705 12.4605 51.3241 6.30453C51.5749 3.94353 51.2689 1.75427 51.1382 -0.587225C51.0785 -1.64847 51.1103 -2.72922 51.0377 -3.79122H52.7256V-3.79272Z" fill="#677C9E"/>
</g>
</g>
</g>
<defs>
<clipPath id="clip0_3_165">
<rect width="68" height="8" fill="white"/>
</clipPath>
<clipPath id="clip1_3_165">
<rect width="68" height="120" fill="white"/>
</clipPath>
</defs>
</svg>
