<?xml version="1.0" encoding="UTF-8"?>
<svg id="Layer_1" data-name="Layer 1" xmlns="http://www.w3.org/2000/svg" viewBox="0 0 122.89 107.13">
  <defs>
    <style>
      .cls-1 {
        fill: #1a5c8b;
      }

      .cls-2 {
        fill: #efe19d;
      }
    </style>
  </defs>
  <path class="cls-1" d="M69.44,10.63c-1.16-.32-2.36.45-2.88-1.01-.32-.9-.18-3.13-.62-3.66-.11-.13-1.24-.52-1.44-.52-2.66-.01-2.19,4.26-3.07,4.99-1.35.69-3.42,1.1-4.36,2.11-14.57,7.89-30.24,19.75-42.58,31.5-.61.58-3.17,3.17-3.5,3.67-.75,1.14-.63,4.87.36,5.15-.07.26-.12.53-.17.83,15.21.36,16.54,14.07,29.63,4,1.52-2.13,2.46-2.94,3.23-3.1l-.47-2.39c-4.5.93-8.93,2.62-13.25,4.72-3.26-1.3-10.89-7.1-15.51-6.95.08-.56.28-1.1.61-1.55-.25.03-.5.05-.74.09.79-1.56,3.12-2.24,4.04-3.32.34-.4-.02-.79.01-.81.5-.31,1.32-.06,1.8-.91l15,1.87c20.37-.27,40.35-2.15,60.6-9.24,1.27-.44,6.14-2.75,6.84-2.52.35.11.81.59,1.18.81.17.11.58.38,1.01.72,1.24.16,2.18.95,2.73,1.97-1.01.23-2.62,1.33-5,3.71-2.65,7.28-7.72,6.16-13.19,5.38l-.64,2.7c3.8,1.98,8.08,3.77,12.24,1.36,3.61-1.87,6.8-7.04,7.68-10.33,1.09-.22,2.04-.46,2.34-.72.97-.81-.07-1.95,1.06-2.75-2.04-.65-3.37-2.58-5.03-3.88-9.19-7.16-26.64-18.79-37.91-21.92ZM52.6,17.77c1.33.36,2.76-1.35,4.28-1.52l-.31-.62.92-.39c1.9.25,4.15.63,6.1.54,1.39-.06,6.09-1.11,6.65-1.02.09,0,1.2.92,1.3,1.04.09.11.84,0,.02.53-.65.43-3.96,1.26-4.78,1.4-4.76.83-9.75.42-14.57,1.4l.39-1.36ZM42.21,25.31c1.39.21,1.83-1.24,2.75-1.75,1.52-.82,2.17.31,1.95-2.14l.39.51,14.19.66c5.88-.74,11.7-.72,17.6-2.34.53-.14.93-.75,1.35-.8.51.04,3.52,1.78,3.03,2.29-3.68.86-7.29,2.15-11,2.83-5.07.95-12.15,1.57-17.23,1.68-1.6.03-12.12-.14-12.72-.48-.13-.08-.42-.37-.31-.46ZM59.61,37.35c-9.87,1.05-18.78.77-28.3-.2-.7-.23-2.51-.94-2.49-1.78l1.6-.41.62-1.38c2.73.07,5.44.36,8.17.36,14.79.03,30.55-1.07,45.48-5.39,1.46-.42,5.28-2.28,6.32-2.35.93-.06,2.35,1.57,3.03,1.75.33.08.9-.35.98-.26.07.06-.11.63.07.88.26.35,1.12.31,1.19.96-12.12,3.75-24.36,6.51-36.67,7.82Z"/>
  <path class="cls-2" d="M65.4,54.53c5.28-1.44,9.03-9.8,15.19-7.89,2.94-1.24,6.08-.91,9.11-.47,5.47.78,10.54,1.9,13.19-5.38,2.38-2.38,3.99-3.48,5-3.71-.55-1.02-1.49-1.81-2.73-1.97-.43-.34-.84-.61-1.01-.72-.37-.22-.83-.7-1.18-.81-.7-.23-5.57,2.08-6.84,2.52-20.25,7.09-40.23,8.97-60.6,9.24l-15-1.87c-.48.85-1.3.6-1.8.91-.03.02.33.41-.01.81-.92,1.08-3.25,1.76-4.04,3.32.24-.04.49-.06.74-.09-.33.45-.53.99-.61,1.55,4.62-.15,12.25,5.65,15.51,6.95,4.32-2.1,8.75-3.79,13.25-4.72,7.15-1.52,14.49-1.16,21.83,2.33Z"/>
  <path class="cls-2" d="M95.09,28.57c-.18-.25,0-.82-.07-.88-.08-.09-.65.34-.98.26-.68-.18-2.1-1.81-3.03-1.75-1.04.07-4.86,1.93-6.32,2.35-14.93,4.32-30.69,5.42-45.48,5.39-2.73,0-5.44-.29-8.17-.36l-.62,1.38-1.6.41c-.02.84,1.79,1.55,2.49,1.78,9.52.97,18.43,1.25,28.3.2,12.31-1.31,24.55-4.07,36.67-7.82-.07-.65-.93-.61-1.19-.96Z"/>
  <path class="cls-1" d="M80.59,46.64c-6.16-1.91-9.91,6.45-15.19,7.89-7.34-3.49-14.68-3.85-21.83-2.33l.47,2.39c1.69-.37,2.52,2.35,6.79.84,3.95-2.18,6.98.15,10.2,1.91-.28,3.72-.01,7.39-.16,11.1-.3,7.21-.71,14.59-1.05,21.73-.18,3.7-.87,7.55-.57,11.2,1.78,1.19,3.65-1.09,4.54-2.69-.43-13.21-.09-26.48.62-39.94,1.38.32,2.83.29,4.45-.42,7.73-4.33,10.05-8.91,20.2-9.45l.64-2.7c-3.03-.44-6.17-.77-9.11.47Z"/>
  <path class="cls-2" d="M42.52,25.77c.6.34,11.12.51,12.72.48,5.08-.11,12.16-.73,17.23-1.68,3.71-.68,7.32-1.97,11-2.83.49-.51-2.52-2.25-3.03-2.29-.42.05-.82.66-1.35.8-5.9,1.62-11.72,1.6-17.6,2.34l-14.19-.66-.39-.51c.22,2.45-.43,1.32-1.95,2.14-.92.51-1.36,1.96-2.75,1.75-.11.09.18.38.31.46Z"/>
  <path class="cls-2" d="M71.56,16.33c.82-.53.07-.42-.02-.53-.1-.12-1.21-1.03-1.3-1.04-.56-.09-5.26.96-6.65,1.02-1.95.09-4.2-.29-6.1-.54l-.92.39.31.62c-1.52.17-2.95,1.88-4.28,1.52l-.39,1.36c4.82-.98,9.81-.57,14.57-1.4.82-.14,4.13-.97,4.78-1.4Z"/>
</svg>